<?xml version="1.0" encoding="UTF-8" standalone="no"?>
<svg
   xmlns:dc="http://purl.org/dc/elements/1.1/"
   xmlns:cc="http://creativecommons.org/ns#"
   xmlns:rdf="http://www.w3.org/1999/02/22-rdf-syntax-ns#"
   xmlns:svg="http://www.w3.org/2000/svg"
   xmlns="http://www.w3.org/2000/svg"
   xmlns:sodipodi="http://sodipodi.sourceforge.net/DTD/sodipodi-0.dtd"
   xmlns:inkscape="http://www.inkscape.org/namespaces/inkscape"
   width="1440"
   height="263"
   version="1.1"
   id="svg30"
   sodipodi:docname="cta-illustration-light.svg"
   inkscape:version="0.92.2 (5c3e80d, 2017-08-06)">
  <metadata
     id="metadata34">
    <rdf:RDF>
      <cc:Work
         rdf:about="">
        <dc:format>image/svg+xml</dc:format>
        <dc:type
           rdf:resource="http://purl.org/dc/dcmitype/StillImage" />
      </cc:Work>
    </rdf:RDF>
  </metadata>
  <sodipodi:namedview
     pagecolor="#ffffff"
     bordercolor="#666666"
     borderopacity="1"
     objecttolerance="10"
     gridtolerance="10"
     guidetolerance="10"
     inkscape:pageopacity="0"
     inkscape:pageshadow="2"
     inkscape:window-width="1920"
     inkscape:window-height="1046"
     id="namedview32"
     showgrid="false"
     inkscape:zoom="0.27222222"
     inkscape:cx="288.36735"
     inkscape:cy="131.5"
     inkscape:window-x="-11"
     inkscape:window-y="-11"
     inkscape:window-maximized="1"
     inkscape:current-layer="svg30" />
  <defs
     id="defs14">
    <linearGradient
       x1="1041.2102"
       y1="331.17684"
       x2="1041.2102"
       y2="510.54025"
       id="a"
       gradientTransform="matrix(0.6576431,0.47780568,-0.72307955,0.99523361,337.82772,-768.01083)"
       gradientUnits="userSpaceOnUse">
      <stop
         stop-color="#FFBC48"
         offset="0%"
         id="stop2" />
      <stop
         stop-color="#FFBC48"
         stop-opacity="0"
         offset="100%"
         id="stop4" />
    </linearGradient>
    <linearGradient
       x1="1254.8721"
       y1="433.72842"
       x2="91.251152"
       y2="900.14117"
       id="b"
       gradientTransform="matrix(1.3245871,0.48211029,-0.24263696,0.66663958,133.70628,-622.55198)"
       gradientUnits="userSpaceOnUse"
       spreadMethod="pad">
      <stop
         stop-color="#61EFFD"
         stop-opacity="0"
         offset="0%"
         id="stop7" />
      <stop
         stop-color="#61EFFD"
         offset="51.929%"
         id="stop9" />
      <stop
         stop-color="#535FD7"
         stop-opacity=".24"
         offset="100%"
         id="stop11" />
    </linearGradient>
  </defs>
  <path
     inkscape:connector-curvature="0"
     style="fill:url(#a);fill-rule:evenodd"
     id="path16"
     d="m 780.57563,109.29669 c -0.0229,0.4704 -0.39187,0.61762 -0.37619,1.12344 -0.54822,-0.72216 -0.67387,-0.56623 -1.41623,-0.13651 -0.0706,-1.33188 1.0542,-0.20563 1.79242,-0.98693 z m 0.25342,1.05307 c 0.64294,0.14946 1.67372,-1.83582 2.36781,-0.20177 -1.11982,0.42865 -1.57552,0.57099 -1.75609,1.62765 -0.31334,-0.28327 -0.50488,-0.77842 -1.22416,-0.35665 0.19285,-0.45939 0.57267,-0.73718 0.58222,-1.373 0.27144,6.8e-4 0.16063,0.27739 0.0302,0.30377 z m -7.88272,2.83141 c 1.17176,1.50398 -1.20022,0.50868 -1.91987,1.07727 0.0635,-0.3222 0.46404,-0.35629 0.20496,-0.95242 0.59207,0.15823 1.87294,1.03568 1.71549,-0.12566 z m -74.83384,56.76366 c 1.54389,-2.57413 4.37726,-2.42653 6.48491,-3.9409 -0.56021,1.58428 -4.84141,2.26236 -6.48491,3.9409 z M 817.13598,97.818108 c 0.33601,0.0377 0.64975,0.09755 0.56084,0.657161 1.60339,0.07967 2.05329,-1.260918 3.54091,-1.283906 -0.0969,-0.770018 -0.29329,-1.426912 -0.8435,-1.673387 -0.48113,0.91741 -1.34229,2.296643 -2.19032,0.983367 -0.0257,0.610461 -0.15814,1.098927 -0.5213,1.314666 -0.0106,-0.329077 -0.48912,-0.412222 -0.54663,0.0021 z m 3.92323,-0.357204 c 1.21134,0.158228 0.82965,-2.373669 0.0277,-1.38898 -0.0217,-0.42612 -0.0649,-0.82591 -0.55873,-0.702599 -0.0941,1.019347 0.62956,1.072966 0.53102,2.091579 z m -13.46853,1.582662 c -0.58999,-0.416291 -2.34178,-0.257677 -2.25318,0.835104 0.51705,-0.514309 2.24324,0.20957 2.25318,-0.835104 z m -3.83747,1.644454 c -1.18305,0.12437 -3.63235,0.42639 -2.96232,1.55595 0.89489,-0.63286 2.50493,-0.49769 2.96232,-1.55595 z m 3.72493,1.93007 c 0.54343,-1.60884 2.20325,-1.92327 3.71802,-2.21331 1.51589,-0.25584 2.889,-0.522717 2.87777,-2.171136 -1.27367,0.63701 -1.05816,0.537727 -2.27731,0.03638 0.2635,2.151848 -1.01144,0.439407 -1.35254,1.766338 -0.3712,0.0158 -0.28327,-0.595168 -0.59113,-0.663102 -0.89544,0.570661 -0.73368,1.370492 -2.22004,0.804802 -0.23468,1.69595 -1.91709,0.43035 -3.00511,1.5434 l 0.0431,0.69262 c 0.17314,0.008 0.33534,0.0335 0.30306,0.33144 0.75181,-0.34745 0.92941,-1.33707 1.86968,-1.48456 0.0428,0.68623 0.78856,0.39988 0.63367,1.35654 z m -12.4803,3.02622 c 0.17811,1.00701 0.81817,1.28293 1.18817,1.97819 l 1.35323,-0.008 c -0.12261,-1.02725 0.77457,-1.03547 1.39135,-1.33147 0.21895,0.77216 0.76616,1.36132 0.34392,1.9816 0.39777,-1.04595 1.09544,-2.21888 0.30223,-2.97813 0.65841,0.68109 0.56484,-0.35721 0.98097,-0.66797 -0.38819,-0.29934 -3.28884,-0.004 -1.25639,0.66935 -1.98927,-0.62207 -2.58141,0.76968 -4.30348,0.35658 z m -163.92337,77.45481 c 0.16931,1.21817 2.18325,0.0659 2.13566,-0.43347 -1.01643,0.16385 -0.85385,0.0422 -2.13647,0.43288 z m 123.21536,-41.24861 1.38877,-0.42113 c -0.31806,-0.31761 -3.28652,0.38594 -3.31064,1.30041 1.0221,-0.30435 1.5487,-0.51877 1.92187,-0.87928 z m -17.89169,11.65678 c -1.91211,-0.86267 -5.41077,1.30729 -6.76278,2.50296 2.55207,-0.63402 4.12451,-1.94764 6.76278,-2.50296 z m -14.121,5.78465 c 0.54383,-0.17348 2.58935,-0.47097 3.03596,-1.92271 -1.00606,0.79436 -5.79915,2.77416 -3.03596,1.92271 z m -122.26355,37.42232 c -2.46343,-0.0494 -7.61866,2.60916 -11.01193,1.9324 3.91138,-1.0061 6.08886,-1.63663 10.10745,-3.0642 -0.25436,-0.70642 -1.10729,0.20043 -1.60623,0.1556 12.25668,-4.5014 20.24624,-7.00178 30.35876,-10.81135 0.70322,-0.50513 0.0704,-1.22321 0.2624,-1.54356 l 5.09742,-1.93421 c 0.34373,1.71818 1.32197,1.33128 2.05687,1.75397 0.74491,-0.0249 -0.74354,-1.42648 0.004,-1.45043 -0.30015,-0.67912 -0.8713,-0.44763 -1.45559,-0.17252 6.32644,-3.24643 16.00302,-6.99697 25.10277,-11.00838 -0.0865,-0.69077 1.49583,-0.37796 0.81283,-1.42671 4.40431,0.79083 6.73808,-2.79902 10.71498,-3.61289 -0.91999,-0.80932 0.93988,-0.19969 1.28416,-1.61948 0.60276,-0.25798 0.38546,0.11936 0.4908,0.53581 13.43863,-5.97512 27.6234,-12.01256 36.51545,-17.25397 2.13382,-0.14681 4.2562,-0.84951 6.56371,-2.75637 4.2694,-1.52099 9.17449,-2.69879 12.3051,-6.39695 0.26853,0.52018 0.009,0.66934 -0.27083,0.80321 2.09282,-0.2384 5.39297,-1.47845 7.62488,-2.81849 0.52801,-0.21464 -0.56756,-0.71767 -0.50101,-1.61738 0.44596,-0.34841 1.72058,-0.0935 1.60508,-0.84987 1.4366,0.73968 -1.38403,0.48267 -0.57682,1.59695 1.84302,0.26365 3.2783,-1.12491 4.56715,-2.47523 7.70728,-1.02813 15.78702,-6.20459 21.41204,-7.81358 0.23936,-0.99294 -1.2446,-0.37274 -0.47899,-0.93143 0.45275,0.0199 0.41125,-0.36869 0.34863,-0.77758 0.97637,0.0172 0.12047,1.01828 0.87453,1.53029 4.52408,-2.15053 6.74567,-2.47089 9.73163,-4.8539 -0.34225,1.35575 0.44272,-0.0615 0.88545,0.52342 0.81417,-1.10189 1.1773,-2.62418 2.87181,-2.94554 0.25499,1.10365 -1.49459,0.9734 -1.98408,2.09116 1.75699,-0.36992 3.41778,-0.66016 5.04618,-1.33116 1.6407,-0.62498 3.2485,-1.62491 4.92729,-3.46941 -0.46781,-1.38066 -1.4978,0.72262 -1.70113,-0.76006 1.62226,-1.5098 2.93865,-2.31108 4.78099,-1.76239 -0.0159,0.37409 -0.48863,0.29145 -0.42923,0.7388 -0.003,-0.59581 2.82096,-0.87993 2.5671,-2.71328 1.38914,0.8152 2.37037,0.0856 2.43414,-2.01139 0.76141,0.35048 1.84489,0.17601 2.25954,1.08542 0.26489,-0.33906 -0.15066,-0.8066 0.68322,-1.1105 -1.19245,-1.40406 -1.90362,-0.77739 -4.042,-0.18025 -0.41954,0.70505 0.22879,0.59019 0.20115,1.68134 -1.17537,-0.12097 -0.36413,-1.19161 -1.52718,-1.51499 -2.01904,0.61832 -1.9223,1.68117 -4.04115,1.90437 0.21092,-2.49689 2.74895,-2.02617 4.22403,-2.61203 0.33583,-0.65958 1.71673,-1.83548 1.65935,-1.91301 0.31129,-0.76022 0.60595,0.28203 0.38586,0.97625 2.45622,-0.75558 2.33783,-2.33476 2.57603,-3.73274 0.82042,0.28458 1.00358,0.93927 0.75064,1.97303 2.10498,-1.11088 5.65505,-0.47471 5.90643,-4.28456 0.29683,0.19711 0.34209,0.75409 0.87064,0.60165 0.34061,-1.727773 2.22161,0.18149 2.60983,-2.21748 1.15362,1.37584 2.94186,-0.374307 4.12089,-0.908268 l 0.0769,1.692427 c 1.63322,-0.432645 2.88649,-1.320575 4.37334,-1.881813 -0.93609,-1.552767 -2.59551,0.960916 -4.14194,0.852181 2.03825,-1.500517 4.05828,-2.514902 6.16108,-3.413531 a 146.838,146.838 45 0 1 6.69067,-2.62828 c -2.93285,1.995156 -5.40331,2.629136 -8.4579,4.167488 0.6835,0.857522 1.38845,-0.771168 1.96883,0.303144 1.58826,-1.575294 5.54362,-3.176129 6.75252,-2.427596 0.95165,-1.861063 3.56046,-1.933478 6.09477,-3.262707 0.98214,0.69997 -0.8744,0.757762 -0.91059,1.338379 0.0485,1.129193 1.39614,-0.989311 1.1186,0.702698 -1.33608,0.05769 -1.2815,0.424905 -1.69266,-0.715584 -0.0611,1.508101 -0.79657,0.23212 -0.90771,1.672973 -0.61265,0.145718 -0.53017,-0.495208 -0.54308,-1.028673 -0.22085,0.93346 -0.36089,2.051715 -1.4556,1.328052 0.0383,1.968445 2.64131,0.724983 2.8539,-0.27876 1.42461,0.438022 3.16889,0.403736 4.58999,-0.509344 0.6238,0.08734 0.5664,0.891103 0.48012,1.72951 0.22967,-0.945596 2.26946,1.093871 1.57482,2.136737 1.71951,1.364252 2.13742,0.775439 3.51899,1.922597 -0.92118,0.85108 0.20702,0.43471 -0.68935,1.65486 0.15383,0.97577 1.00782,1.20563 1.51363,1.79562 0.075,1.49944 -1.00036,1.32754 -1.28869,2.29603 1.16618,0.10811 -0.50996,1.50832 1.27068,1.10244 -0.48301,0.80602 -1.35249,1.24227 -0.14697,1.68922 0.0877,1.28122 -1.08353,0.67133 -1.2099,1.62276 -0.0603,1.19225 0.63053,1.55821 0.56405,2.75215 0.0377,0.82093 -0.53939,0.70327 -0.40225,1.6731 a 46.055,46.055 0 0 1 -7.98325,5.08959 c -2.80999,1.53684 -5.7249,2.75023 -8.66587,3.7494 -9.17147,3.1608 -18.59022,7.02945 -27.96428,10.42995 -2.83547,0.97817 -5.88724,2.13663 -8.95953,3.10219 -3.07164,1.10076 -6.16651,2.06845 -9.093,3.0596 -10.03879,3.34399 -17.67031,6.43701 -25.72557,9.77469 a 1940.352,1940.352 0 0 0 -28.11073,11.95516 c -9.30766,4.03217 -20.20171,10.02665 -30.21892,13.44813 -4.58486,1.55879 0.51086,-0.86986 1.39564,-1.28634 9.65435,-4.5553 17.87119,-7.77681 27.31554,-12.69977 -1.30193,-0.0114 -3.54281,0.86969 -4.8903,1.80906 7.41058,-5.1163 17.66207,-8.44172 25.93661,-11.85494 -0.0322,1.03101 -0.77246,0.52899 -1.6671,1.23125 3.51178,-0.0801 5.5397,-2.44598 9.49102,-3.25867 -1.45937,-1.15917 -2.48025,0.92477 -4.77764,1.08746 -0.38073,0.0868 -0.84677,0.43051 -1.03667,-0.0363 l 0.93593,-0.28784 c 7.37314,-4.09161 15.65406,-6.43841 22.38459,-9.9722 -5.23751,1.41588 -11.46382,2.65475 -16.99392,6.58976 0.0608,-0.33036 0.11857,-0.66167 -0.1861,-0.65064 -5.25603,2.04023 -10.27752,3.92948 -14.88476,6.05667 5.95938,-3.64289 12.61324,-5.91597 19.39348,-9.11328 -3.67265,0.24879 -7.01046,2.68394 -11.50329,3.74348 -0.55281,0.004 -0.30932,0.60096 -0.17607,1.1168 -3.36521,0.0383 -6.35408,1.55765 -9.29075,2.62915 -22.31855,8.3144 -41.08041,18.02996 -66.82021,28.9488 -1.0654,0.45583 -2.14964,0.72492 -3.58921,1.44906 -1.11968,0.56967 -2.66911,0.32896 -3.84802,0.81852 -2.9979,1.25446 -5.63021,4.28377 -8.8021,3.14239 -0.79128,0.52768 -2.95278,1.06475 -2.05846,0.44631 3.49264,-2.44751 7.33603,-3.09634 10.24383,-4.43604 12.19938,-5.61346 24.25103,-10.04873 34.78166,-15.133 -9.82821,2.4587 -18.90837,8.52385 -27.60997,11.5143 -4.03891,1.38068 -8.80944,3.66117 -12.59824,4.69081 -17.23484,4.73861 -33.4789,14.59376 -52.12271,17.02689 0.73408,-1.16008 1.56812,-1.28215 1.96729,-1.69546 z m 195.92213,-92.99541 c -0.42502,0.17327 -0.47634,-1.67856 0.21421,-1.2918 -0.0394,0.26183 -0.23569,0.35162 -0.22672,0.66592 1.11221,0.40016 0.30215,-1.29714 1.19521,-1.14148 -0.58384,1.35822 0.63258,-0.15102 1.46414,0.0638 -0.91289,0.97577 -1.87317,1.25458 -2.64684,1.70358 z m -16.93588,8.96315 c -0.53223,-0.48557 -1.03248,0.41053 -2.07861,0.26479 0.54149,-1.36798 1.6478,-1.14515 1.9312,-2.28038 0.857,0.37543 0.26017,1.64264 0.14741,2.01559 z m -4.13323,1.06988 c -0.20449,0.0875 -0.27369,-0.0963 -0.33407,-0.29216 -0.29368,0.55052 -0.0369,2.26242 -0.97096,1.47251 -0.17979,-0.84137 1.0151,-0.48867 0.38075,-1.73198 0.48854,-0.17904 0.81827,-0.0408 0.92428,0.55163 z m 0.74298,-0.37613 c 0.6393,0.37054 -0.73338,2.15439 -1.25692,1.54287 -0.20012,-1.06009 0.98777,-0.8917 1.25692,-1.54287 z m -3.95543,2.07049 -0.2015,-1.03266 c 0.4895,-0.0102 1.27311,-0.59539 1.2004,0.49144 -0.48581,0.0426 -0.48087,0.52576 -0.99948,0.54203 z m -6.21965,1.4662 c -0.29558,-0.0355 -0.34379,-0.61565 -0.6777,-0.56778 0.12728,-0.73321 1.46727,-0.45432 1.51526,-1.25875 0.86933,0.63408 -0.30166,1.68438 -1.01006,1.17587 z m 1.55586,0.006 c 0.54811,0.1745 2.68093,-0.36734 2.57832,-1.71134 0.58969,0.72633 0.71136,0.55886 1.47193,0.0769 0.3863,0.95185 -0.42028,0.84048 -0.29069,1.56379 -1.63271,-0.8117 -2.92588,2.25608 -3.75956,0.0707 z m -16.70636,5.84691 c -0.8764,0.55977 -0.6248,-1.41808 -0.95266,-2.09138 0.74784,-0.20078 1.15879,1.57119 0.95266,2.09138 z m -9.14082,4.5205 c 0.2185,-0.62739 0.79341,-0.99336 1.59897,-1.18682 0.0645,0.87753 -1.19359,1.45909 -1.59897,1.18682 z m 18.69604,-4.67079 c 0.0493,-0.29918 0.0948,-0.6035 -0.072,-1.07823 0.96837,1.44027 2.93115,-2.6206 3.27346,0.59837 -1.45707,-1.57406 -1.97614,1.62599 -3.20149,0.47986 z m -21.41172,6.17479 c 0.26372,-0.7849 1.51519,-1.11913 2.22126,-2.09437 -0.1962,0.51504 -0.5195,0.9328 -0.34532,1.72065 -1.04054,-0.13302 -1.09722,0.94196 -1.87594,0.37372 z m 18.57811,-4.37576 c -0.25342,-0.13097 -0.50654,-0.25554 -0.86086,-0.15575 -0.41685,-0.88257 0.34678,-0.80735 0.18265,-1.48654 0.52974,0.20318 0.96362,1.03509 0.67821,1.64229 z m 1.48702,-1.43254 c 0.21827,0.72717 -0.88164,0.37303 -1.21309,0.64889 -0.0471,-0.67696 0.34861,-0.9902 0.10544,-1.82941 0.8886,0.0325 0.76232,1.01614 1.10765,1.18052 z m -36.11938,12.67163 c -0.10119,-1.27622 1.9787,-1.04937 2.57076,-1.84045 -0.001,1.79503 -1.39739,0.84132 -2.57076,1.84045 z m 1.3393,4.6862 c 0.0647,-0.32382 -0.0435,-0.76703 -0.28677,-1.29979 l 1.39277,-0.36879 c 0.43423,1.56639 -0.75815,0.64198 -1.106,1.66858 z m -107.43342,47.50113 c 1.85503,-1.98839 6.21318,-2.26199 10.73195,-4.56346 -1.93028,1.57649 -7.39118,3.08717 -10.73195,4.56346 z m 13.6183,3.51245 c 2.28315,-1.81207 3.40182,-0.64332 0,0 z m 7.52674,-2.95901 c 1.9876,-1.80678 3.45379,-0.83053 0,0 z m 84.62613,-32.67176 c 0.38351,1.42694 -1.99748,0.97144 -2.77452,1.60711 -1.34302,-0.32065 2.59419,-0.79748 2.77452,-1.60711 z m -12.94716,8.25552 c 0.0974,-1.10721 2.68959,-0.5749 2.78919,-1.68174 0.99425,0.8126 -2.47215,1.70813 -2.78919,1.68174 z m -0.80946,1.24003 c -0.18271,0.13919 -0.27705,-0.0406 -0.36478,-0.23289 -3.28956,2.03018 -0.70267,-1.75153 0.36478,0.23289 z m -21.37872,8.9416 c 1.92163,-1.85719 3.37672,-0.88777 0,0 z m 4.00722,-1.37279 c 1.65791,-0.92768 4.63685,-3.54941 6.76278,-2.50297 -2.29338,0.71691 -5.19785,2.09116 -6.76278,2.50297 z m -33.92436,13.81523 c -1.93381,1.13389 1.14825,-0.0186 2.5055,-0.5393 1.80639,-0.68631 3.93286,-1.42188 4.16195,-2.35306 -1.88662,0.63171 -4.82513,1.85887 -6.66804,2.89317 z" />
  <path
     inkscape:connector-curvature="0"
     style="fill:#ffbc48;fill-rule:evenodd;fill-opacity:1"
     id="path18"
     d="m 316.01902,475.10869 c -3.27284,0.19434 -6.86933,0.12297 -10.64207,-0.21263 -3.77205,-0.37258 -7.72576,-0.97411 -11.72794,-1.73481 -8.01345,-1.45554 -16.16236,-3.90431 -23.46062,-6.23715 -7.3945,-2.50408 -13.85193,-5.00977 -18.57197,-7.14594 0.53975,-4.2401 2.81819,-3.21395 4.90893,-2.76266 2.07323,0.42045 3.93578,0.26191 3.70394,-6.2352 2.95032,3.8641 -0.45678,14.62262 8.10073,12.57178 2.51813,-7.2255 -1.57022,-7.24072 -4.74105,-8.24475 5.3671,-5.3021 8.5655,-1.31259 11.90883,2.536 3.06627,3.55725 6.34938,7.08594 11.28746,3.39529 0.37269,-0.36025 0.8057,-0.74006 1.36714,-1.154 -0.4714,0.4531 -0.9244,0.8235 -1.36749,1.15494 -3.69546,3.57466 1.44864,4.67437 10.10653,5.27155 9.52381,0.75593 23.152,0.81351 33.83527,3.57068 -2.90903,3.26177 -8.1632,4.84736 -14.70769,5.2269 M 115.85648,293.25175 c -1.93335,0.94367 -6.9505,-1.01651 -8.80251,-8.46834 -3.0763,1.1864 -6.09917,0.26707 -9.070356,-2.10414 1.93512,-2.02741 3.742116,-1.54212 5.690626,-4.36067 -1.14122,-1.55723 -2.41935,-0.0718 -3.72743,1.57195 -1.259972,-11.70696 11.8408,-1.72419 7.10716,4.89286 9.75999,3.82904 10.74133,7.52135 8.80217,8.46928 m -31.669252,-2.59821 c 5.920393,-4.75805 15.28407,6.24721 15.306973,10.57292 -7.777358,2.21135 -7.750724,-4.66845 -15.306973,-10.57292 M 1489.9146,353.76787 c 2.5636,-10.48768 4.3042,-20.51826 5.5755,-30.98146 a 196.423,196.423 0 0 0 0.791,-7.71684 280.206,280.206 0 0 0 0.5479,-7.68615 c 0.2805,-5.10385 0.4887,-10.46497 0.4293,-15.47973 a 284.408,284.408 0 0 0 -0.5206,-15.42848 c -0.2947,-5.24833 -0.8484,-10.20035 -1.4814,-15.38768 -1.2556,-10.38577 -3.2705,-20.50094 -5.8488,-30.89564 -5.3169,-20.51572 -13.2164,-41.25101 -24.6725,-62.03569 -3.4585,-6.28064 -7.3282,-12.36404 -11.3629,-18.25739 l -1.5272,-2.20111 -1.4202,-1.95459 -2.85,-3.78291 a 228.144,228.144 0 0 0 -5.916,-7.36451 c -8.0288,-9.47121 -16.7087,-17.92576 -25.6587,-25.22291 -17.9406,-14.658035 -36.9613,-24.944898 -55.4227,-32.064407 -18.4976,-7.133788 -36.4779,-11.157048 -53.2506,-13.636128 -16.7913,-2.477376 -32.4083,-3.426986 -46.5789,-4.336441 -3.6074,-0.1786 -7.2865,-0.259823 -10.8771,-0.14281 -3.5122,0.179576 -7.0604,0.449276 -10.561,0.883197 -6.9019,0.981587 -13.8155,2.386761 -20.6739,4.102511 -13.6645,3.334544 -27.3501,8.340719 -40.3059,13.523107 -26.0236,10.479396 -49.5608,22.653371 -68.5761,28.373761 -2.1389,0.63151 -1.7246,-6.348729 -5.6814,-5.82763 -10.123,1.51299 -22.9913,8.92263 -35.2191,16.93785 -12.3409,8.18265 -23.9289,16.67975 -32.4193,19.98199 -7.0876,-4.0227 -13.9139,2.99905 -19.7638,8.1978 -5.8791,5.13595 -10.8369,8.67896 -15.0354,-2.64389 -4.97788,4.65948 -9.95231,8.77747 -14.909,12.41985 -4.96584,3.67629 -9.95526,7.04603 -14.89105,9.92341 -4.94571,2.91635 -9.84309,5.34906 -14.72427,7.59398 a 158.768,158.768 0 0 1 -14.53986,5.98502 169.545,169.545 0 0 1 -7.14526,2.36053 c -2.36619,0.73824 -4.73522,1.53397 -7.07422,2.21506 a 236.58,236.58 0 0 1 -13.80228,3.62814 c -4.50695,0.99451 -8.95399,2.22792 -13.25732,3.18054 -4.27934,0.97732 -8.47059,1.93775 -12.53317,2.86627 -2.42563,8.48297 2.34029,17.01026 -1.00061,17.35649 -5.31426,1.67759 -3.00239,-12.44862 -8.42874,-10.77884 -2.35555,7.82847 3.25907,13.21992 -0.5725,13.90262 -0.54446,-4.14413 -1.25861,-7.93607 -2.56483,-10.55156 -0.79051,5.97284 1.86804,9.00711 -0.37182,10.43621 -1.47212,-0.075 -1.83913,2.75194 -3.03524,3.35417 -1.96864,-2.21063 0.17439,-13.37603 -2.57491,-14.02658 -0.2893,7.57807 -1.75058,6.36513 -3.38163,5.2064 -1.62739,-1.1425 -3.4358,-2.31683 -4.20547,5.1396 2.52408,-0.1838 3.71755,2.6684 4.26598,6.93318 -9.50492,-0.50961 -20.91359,4.15575 -31.38409,9.10298 -2.62955,1.18405 -5.21099,2.3324 -7.72105,3.34604 -2.50546,1.06533 -4.9277,2.10667 -7.26476,2.85551 -4.67114,1.5275 -8.97318,2.13154 -12.7909,1.057 -2.09119,7.73952 -5.11386,9.30193 -8.53137,10.17152 -1.7044,0.43744 -3.50222,0.70466 -5.28738,1.49262 -1.78678,0.80121 -3.58391,2.21267 -5.22256,4.78218 -0.79846,-13.98658 -5.26345,-9.51397 -6.5648,-6.06719 1.75891,0.1379 3.45298,0.54166 3.81331,6.48109 -3.07107,6.33253 -7.13472,5.7144 -11.36115,4.00265 -4.19139,-1.76711 -8.45381,-4.84773 -11.43175,-3.72983 -3.30767,1.26074 -5.51547,17.66812 -9.91555,16.1177 -5.16944,-1.82831 -9.51513,0.18797 -13.62435,3.14805 -4.10204,2.95205 -8.12566,7.08621 -12.94846,9.79934 -6.70781,3.75207 -14.08734,7.28839 -21.68855,10.41625 -7.75724,3.23496 -15.7283,6.11009 -24.15711,8.90375 -16.7091,5.5126 -34.54696,10.37812 -52.36273,15.07183 l -13.27083,3.51297 -13.06674,3.53404 c -8.73666,2.30914 -17.02816,4.80159 -25.167,7.29853 -4.04917,1.2601 -7.89513,2.64311 -11.73902,3.98537 a 174.155,174.155 0 0 0 -11.08894,4.26348 c -7.03458,3.07976 -13.65011,6.19818 -19.34459,10.00514 -4.30419,-3.67048 -9.527,-5.01592 -15.10573,-4.91274 -5.57966,0.0911 -11.54799,1.39339 -17.29066,3.20131 -5.74359,1.71394 -11.27889,3.75909 -15.89817,5.27567 -4.6219,1.4507 -8.32998,2.29115 -10.36495,1.65158 -5.95637,-1.89126 -6.49008,6.78228 -17.66224,7.59627 -19.46104,1.33441 -34.29493,3.72403 -42.60591,-17.58243 -5.0373,4.08021 -10.61512,5.74806 -16.2748,5.98886 -5.66636,0.30009 -11.4159,-0.68582 -16.88669,-1.85868 -2.73608,-0.56699 -5.40885,-1.14711 -7.98068,-1.5894 -2.56772,-0.47698 -5.03636,-0.84021 -7.37763,-0.89849 -4.67782,-0.13824 -8.85194,0.94761 -12.30358,4.25877 2.93233,2.323 7.16645,2.56048 8.14244,7.87265 a 382.323,382.323 0 0 1 -12.5289,-1.42295 l 1.68595,-13.79533 c -5.26432,0.0931 -10.2587,-0.58176 -15.04073,-1.67633 -4.78724,-1.0773 -9.39417,-2.32841 -13.90977,-3.54097 -4.51664,-1.18632 -8.97767,-2.05763 -13.51526,-2.3151 -4.53733,-0.26696 -9.16818,0.21421 -14.09816,1.92951 1.72666,1.17969 3.09362,6.41175 0.38663,7.14194 -5.09682,-2.10091 -14.62327,0.87534 -12.66409,-9.74401 5.26613,-2.75289 6.20505,12.11381 10.52913,2.23922 -3.36343,-3.49515 -5.29535,-8.55505 -10.7611,-9.44938 -1.44551,5.00654 -2.17611,12.66555 -4.83442,13.16551 -10.16812,-6.14318 -20.51814,-8.48854 -30.31542,-9.57493 -4.89539,-0.55797 -9.66372,-0.89198 -14.12664,-1.16165 -4.47647,-0.35229 -8.66912,-0.74174 -12.39254,-1.43504 1.23654,-1.83898 8.64736,-11.25626 4.38836,-13.18845 -12.65951,8.34761 -24.95849,0.46578 -36.20173,-7.99807 -11.36525,-8.4444 -21.59665,-17.01885 -34.28042,-10.13373 2.77409,-8.67433 -0.20267,-12.68215 -5.04377,-13.67582 -4.83692,-0.9613 -11.69784,1.3548 -16.46598,5.90012 3.85953,-6.55742 3.94832,-10.99997 1.98699,-14.24233 -1.96526,-3.2374 -6.02559,-5.28563 -10.52421,-7.34015 -4.15977,-1.47679 -2.52591,9.59472 -9.17053,6.47179 -1.57746,-3.27078 -3.2653,-6.2646 -5.09513,-8.98234 -1.82864,-2.71518 -3.8091,-5.11847 -5.91118,-7.37767 -4.13815,-4.68806 -8.957996,-8.49726 -13.941971,-12.57479 -4.964663,-4.08965 -10.407439,-8.12878 -15.668109,-13.18283 -5.401167,-4.91364 -10.597841,-10.85108 -15.523308,-18.06578 -7.769003,3.43393 -5.541,12.96367 -10.00481,9.64693 -6.492757,-1.2245 -11.031525,-7.04273 -14.148501,-13.34061 -3.06142,-6.3745 -5.053982,-12.94313 -7.042324,-16.14636 1.93714,3.29421 -5.401317,3.12724 -1.296852,-1.66177 6.496684,-3.11059 6.741852,0.47872 7.597561,4.29983 0.801113,3.82785 2.064997,8.0625 9.756335,5.80388 -1.896183,-2.53543 -4.323269,-9.39844 -7.251388,-15.26788 -2.91196,-5.90507 -6.730319,-10.61508 -12.219695,-9.02357 -4.483907,3.7059 -0.892409,4.16814 1.967725,4.74517 2.84287,0.59521 4.923595,1.38978 -2.44381,6.10324 -2.678214,-1.53881 -4.564613,-3.0661 -5.992601,-4.75644 -1.41175,-1.70572 -2.430716,-3.53451 -3.487366,-5.62817 -1.055966,-2.09554 -2.149959,-4.455 -3.710306,-7.24067 -1.520952,-2.81496 -3.421011,-6.11163 -6.2369321,-10.02046 4.3231169,-1.96597 7.2076861,-1.10231 12.8289461,-5.78407 -6.476094,1.6623 -11.0357313,0.26664 -15.7523838,-2.05134 -4.7449332,-2.31338 -9.9752834,-5.30466 -18.1241522,-7.02552 0.516487,4.54261 1.565586,8.77677 2.792763,12.90761 a 93.715,93.715 0 0 0 2.064735,6.05749 109.926,109.926 0 0 0 2.5532599,5.75323 c 1.8208938,3.7627 3.7351833,7.47639 5.9109527,11.03304 2.18602296,3.55187 4.4707378,7.05771 6.7854331,10.58937 9.5125533,14.0317 19.7000093,27.90785 27.9236483,47.54794 C 17.442588,224.57979 6.5048155,211.35 -2.5770404,198.13485 a 253.11,253.11 0 0 1 -6.3365432,-10.04501 c -2.0388744,-3.35678 -3.7822574,-6.89971 -5.5493814,-10.47683 -3.567918,-7.12606 -6.400631,-14.93589 -9.007133,-23.53389 -3.731567,1.70027 -8.410208,5.2044 -10.193666,3.12822 5.761689,-4.87754 5.330599,-10.45005 2.744547,-15.67461 -2.574006,-5.2255 -7.089659,-10.33828 -9.954499,-13.78817 4.817079,13.19638 -1.693623,0.67974 -7.305701,0.8804 2.387963,1.91524 1.224466,7.24045 -0.451975,11.36693 -1.55366,3.80083 -3.577238,6.51863 -3.871746,4.23732 0.165674,6.03566 3.978655,11.89196 7.575381,17.51204 3.754806,5.83193 7.658505,11.15829 7.458801,16.51078 -0.04917,2.48292 -9.043361,3.7161 -7.661186,7.50003 -0.100288,-0.33553 8.955427,-5.38374 10.117129,-3.46468 3.046944,5.05177 -2.158007,13.56605 0.37455,19.70655 2.603879,5.90361 12.054821,10.4151 15.443043,15.59641 16.4812088,25.3252 35.326872,53.19453 58.966932,79.3322 23.672258,26.46438 51.112527,50.19568 78.682248,67.49857 18.48981,11.68136 37.62405,21.0922 56.49609,29.03056 18.89238,7.94683 37.5352,14.44493 55.50517,20.47892 17.98117,6.02955 35.3047,11.62925 51.82123,17.71526 16.50027,6.18333 32.66892,12.77485 48.44444,20.96109 a 232.04,232.04 0 0 0 -21.21911,-5.97788 c -7.33198,-1.86304 -14.94893,-3.27643 -22.73071,-4.88602 -15.483,-2.96107 -32.19515,-5.91618 -49.52225,-9.84536 -17.31633,-3.94121 -35.29464,-8.95237 -52.95484,-16.07719 -17.63698,-7.1068 -34.96173,-16.35494 -50.42763,-28.32444 -8.30578,9.17455 -8.2371,-6.15654 -15.47621,4.15436 17.83736,8.69938 40.2701,18.72547 61.74005,27.88821 21.49719,9.25459 42.02266,17.79901 56.81613,25.87363 -0.81522,9.52884 -9.31976,-4.92453 -10.2192,4.54918 4.2571,3.75017 18.09055,-1.87579 13.26404,10.56044 -35.05787,-10.48588 -74.64419,-26.16049 -114.22832,-46.33791 -19.77482,-10.06008 -39.50975,-21.2209 -58.522577,-32.97982 -4.742643,-2.83719 -9.468285,-5.96083 -14.117601,-8.90239 -4.654536,-2.91259 -9.256305,-6.00818 -13.796582,-9.02711 l -6.766302,-4.48147 c -2.250433,-1.55338 -4.480279,-3.09607 -6.693127,-4.62405 -4.411682,-3.0711 -8.834335,-6.01848 -13.057058,-9.00058 4.647244,7.06981 10.019645,13.63842 15.851582,19.99117 5.827312,6.10525 12.212852,12.23809 19.119325,17.98056 6.928285,5.93983 14.350476,11.58693 22.392636,17.65336 4.013853,2.91565 8.159504,5.92823 12.457113,9.05252 4.32468,3.16393 8.725019,6.16386 13.354318,9.4791 19.759743,13.958 41.965553,26.03731 64.481493,36.06283 22.50477,10.00655 45.29769,18.01091 66.88619,24.71066 2.69876,0.83328 5.39128,1.66323 8.07064,2.48839 l 7.89623,2.31849 c 5.27639,1.57246 10.38862,3.00536 15.43446,4.42474 9.99192,2.77371 19.72013,5.47379 29.05484,8.06789 18.64506,5.2698 35.7977,10.07301 50.33199,15.69615 5.82948,-3.25979 21.2931,-3.27163 36.77733,-1.60628 7.74535,0.88227 15.51119,2.09125 22.09177,3.89896 6.58249,1.71476 11.98524,3.87275 14.96547,6.56119 23.24933,0.48179 48.02028,-0.26402 73.2141,-2.01375 25.19851,-1.73632 50.81475,-4.47416 75.89844,-7.65805 12.67972,-1.54974 24.63382,-3.33378 36.56315,-4.83633 11.30756,-1.63626 22.79328,-3.03103 32.95716,-4.25882 2.60306,-0.28382 5.18544,-0.56346 7.74466,-0.84088 l 7.45944,-0.72973 c 4.81341,-0.44772 9.55333,-0.81045 14.20948,-1.07171 2.27681,-0.10672 4.52662,-0.20943 6.7473,-0.31104 2.17163,-0.078 4.3248,-0.12859 6.45343,-0.14983 4.22182,-0.0416 8.52205,0.0114 12.41444,0.21707 -1.05366,1.08507 -3.32458,0.91831 -2.5808,4.21661 6.47799,0.0166 13.08171,-0.45844 19.97429,-1.49026 6.57577,-0.98006 13.09727,-2.47472 19.33066,-4.50523 5.86275,-1.94193 11.67544,-4.49483 16.54514,-7.51227 4.73445,-2.97621 8.96868,-6.55165 12.28917,-10.71293 -4.12158,-7.87668 -11.35077,5.03549 -15.45727,-3.28905 3.1326,-2.0779 6.5093,-4.45219 10.52341,-5.89957 2.0652,-0.74456 4.04505,-1.16688 6.2898,-1.22355 2.23647,-0.0544 4.67428,0.27956 7.3532,1.15564 0.96586,4.34008 -0.5329,5.07797 1.14066,10.43546 l 4.67809,-1.35363 c 1.45722,-0.39864 2.9118,-0.79293 4.36202,-1.18986 l 8.6395,-2.2615 8.00111,-1.89047 c 2.64117,-0.61368 5.34061,-1.25297 7.67554,-1.70355 l 7.2383,-1.50512 c 1.2448,-0.27696 2.33245,-0.46426 3.42292,-0.66223 l 3.28775,-0.61246 3.27862,-0.63707 c 1.10526,-0.22984 2.18771,-0.44669 3.13874,-0.58901 1.97367,-0.33518 3.94546,-0.69445 5.9141,-1.08893 2.05179,-0.45041 3.754,-0.70348 5.52134,-1.04778 1.75879,-0.33251 3.53999,-0.74412 5.27941,-1.14328 3.32183,-0.57451 6.6351,-1.39158 9.99995,-2.41762 3.45823,-0.75047 6.93296,-1.80355 10.5031,-3.08369 3.65327,-1.01151 7.34921,-2.41507 11.20916,-4.00902 11.00511,-4.21737 22.8217,-9.60582 35.80905,-16.01224 3.25727,-1.52278 6.58801,-3.07203 9.98015,-4.79581 l 5.14862,-2.62008 5.2764,-2.53845 22.27316,-11.18039 c 15.48868,-7.63288 32.34693,-16.25393 50.54566,-24.84468 9.14507,-4.54531 18.53307,-8.71702 28.37977,-13.44435 l 14.9418,-6.79116 c 5.082,-2.32611 10.2696,-4.71704 15.4836,-6.94939 3.8738,-1.69638 7.8671,-3.39931 11.8779,-5.06284 l 6.0117,-2.45921 5.8885,-2.22625 c 7.7435,-2.89305 15.2205,-5.52765 21.0817,-7.55314 9.7017,-3.33495 17.4389,-4.2722 24.8965,-4.94725 7.4552,-0.65677 14.6066,-1.0985 23.5704,-3.04935 11.4325,-2.45598 25.2629,-7.26365 40.933,-9.79587 7.7541,-1.23542 16.0279,-1.94543 24.222,-1.42767 4.2045,0.21073 8.1363,0.75851 12.2914,1.57274 3.9491,0.93293 8.0715,2.08539 11.8319,3.75309 6.5786,2.71367 13.187,7.42715 19.5411,13.54426 6.3659,6.11079 12.3686,13.6814 17.5952,22.10076 5.2609,8.40099 9.8876,17.60336 13.9855,26.70587 1.0618,2.26368 1.9589,4.54406 2.9839,6.76876 0.9898,2.23324 2.0709,4.41773 2.9753,6.57303 a 118.47,118.47 0 0 0 2.9939,6.26161 90.273,90.273 0 0 0 1.6083,2.96382 77.33,77.33 0 0 0 1.5724,2.83155 c 2.4029,4.07881 4.8973,7.93552 7.4869,11.51296 2.4694,3.56563 5.0669,6.86712 7.8149,9.85732 5.4939,5.98606 11.6022,10.72288 18.4025,13.99716 6.7965,3.28146 14.2886,5.09636 22.3393,5.39699 8.046,0.31062 16.6442,-0.90174 25.4513,-3.42787 8.7528,-2.50547 17.4719,-6.29275 26.0858,-10.86965 4.3403,-2.30557 8.4405,-4.7028 12.486,-7.20718 4.0449,-2.50251 7.994,-5.09304 11.8184,-7.65344 3.8813,-2.60884 7.5687,-5.08821 10.9563,-7.36381 3.4722,-2.30335 6.8058,-4.4539 9.9811,-6.31299 6.3541,-3.71586 12.0948,-6.27263 17.1101,-6.49149 10.4366,-19.96129 18.1905,-40.90538 23.0885,-61.32138" />
  <path
     style="fill:#fe7e1f;fill-rule:evenodd"
     inkscape:connector-curvature="0"
     id="path20"
     d="m 1133,100.818 c 0.023,0.05 -0.41,0.217 -0.453,0.175 -0.431,-0.431 -0.62,-0.954 -0.95,-1.421 -0.328,-0.468 -0.808,-0.875 -1.058,-1.372 -0.25,-0.497 -0.351,-1.052 -0.537,-1.574 -0.186,-0.522 -0.279,-1.08 -0.414,-1.623 -0.132,-0.544 -0.311,-1.07 -0.416,-1.627 -0.12,-0.621 -0.053,-1.319 -0.205,-1.926 -0.15,-0.61 -0.26,-1.237 -0.511,-1.805 -0.252,-0.567 -1.173,-0.84 -1.592,-1.333 -0.415,-0.489 -0.76,-1.01 -1.412,-1.395 -0.65,-0.383 -1.506,-0.673 -1.974,-1.135 -0.468,-0.461 -0.765,-1.004 -1.097,-1.528 -0.328,-0.524 -0.517,-1.116 -0.748,-1.684 -0.235,-0.568 0.038,-1.377 -0.145,-1.97 -0.179,-0.588 -0.617,-1.05 -0.755,-1.658 -0.138,-0.608 -0.587,-1.065 -0.704,-1.684 -0.116,-0.618 -0.065,-1.321 -0.178,-1.945 -0.116,-0.622 0.023,-1.373 -0.106,-1.99 -0.13,-0.621 -0.49,-1.122 -0.658,-1.722 -0.168,-0.6 0.336,-1.55 0.105,-2.124 -0.231,-0.572 -1.22,-0.741 -1.53,-1.269 -0.306,-0.528 -0.25,-1.253 -0.652,-1.732 -0.11,-0.13 0.698,-0.575 0.826,-0.456 0.426,0.397 1.312,0.543 1.787,0.918 0.477,0.373 1.347,0.532 1.839,0.903 0.49,0.372 0.095,1.218 0.571,1.596 0.478,0.376 1.795,0.315 2.238,0.719 0.444,0.402 0,1.264 0.372,1.702 0.412,0.488 1.544,0.613 1.896,1.136 0.355,0.52 0.413,1.189 0.713,1.736 0.297,0.55 0.095,1.34 0.341,1.912 0.246,0.571 0.847,0.976 1.04,1.575 0.195,0.61 0.132,1.339 0.378,1.923 0.247,0.584 0.346,1.236 0.593,1.82 0.247,0.583 0.965,0.955 1.164,1.56 0.197,0.61 0.352,1.233 0.443,1.884 0.08,0.573 0.592,0.964 0.638,1.55 0.046,0.59 -0.832,1.562 -0.808,2.153 0.025,0.591 0.773,0.884 0.793,1.478 0.022,0.59 0.157,1.136 0.183,1.723 0.023,0.59 0.234,1.101 0.273,1.683 0.04,0.58 -0.462,1.373 -0.39,1.937 0.07,0.565 -0.403,1.34 -0.29,1.886 0.112,0.545 0.377,1.034 0.54,1.56 0.166,0.524 0.612,0.944 0.85,1.444 z" />
  <path
     style="fill:#ffbc48;fill-rule:evenodd"
     inkscape:connector-curvature="0"
     id="path22"
     d="m 1140.232,22.932 c 0.04,0.024 -0.226,0.407 -0.278,0.4 -0.52,-0.063 -0.893,-0.34 -1.354,-0.493 -0.463,-0.151 -1.014,-0.186 -1.418,-0.424 -0.404,-0.238 -0.718,-0.594 -1.074,-0.897 -0.354,-0.302 -0.646,-0.682 -0.965,-1.026 -0.322,-0.341 -0.653,-0.671 -0.943,-1.048 -0.324,-0.423 -0.518,-0.995 -0.843,-1.403 -0.33,-0.407 -0.633,-0.84 -1.026,-1.17 -0.39,-0.33 -1.264,-0.114 -1.783,-0.318 -0.514,-0.198 -0.958,-0.477 -1.648,-0.502 -0.687,-0.023 -1.527,0.097 -2.073,-0.099 -0.544,-0.198 -0.976,-0.523 -1.407,-0.843 -0.434,-0.32 -0.758,-0.75 -1.116,-1.145 -0.351,-0.402 -0.29,-1.196 -0.592,-1.635 -0.302,-0.428 -0.791,-0.688 -1.044,-1.162 -0.252,-0.475 -0.762,-0.72 -0.978,-1.223 -0.218,-0.503 -0.297,-1.12 -0.502,-1.625 -0.2,-0.508 -0.18,-1.197 -0.39,-1.689 -0.208,-0.492 -0.594,-0.839 -0.823,-1.31 -0.233,-0.474 0.148,-1.42 -0.113,-1.857 -0.26,-0.436 -1.22,-0.34 -1.542,-0.739 -0.326,-0.395 -0.317,-1.036 -0.727,-1.365 -0.112,-0.09 0.634,-0.637 0.762,-0.562 0.427,0.252 1.269,0.186 1.731,0.396 0.46,0.214 1.293,0.133 1.773,0.32 0.483,0.18 0.166,1.003 0.647,1.189 0.48,0.186 1.69,-0.238 2.127,-0.036 0.433,0.204 0.127,1.034 0.513,1.283 0.433,0.275 1.466,0.018 1.853,0.313 0.388,0.3 0.52,0.821 0.867,1.158 0.348,0.33 0.288,1.038 0.597,1.411 0.307,0.376 0.924,0.457 1.196,0.862 0.277,0.413 0.36,1.018 0.7,1.378 0.337,0.357 0.549,0.845 0.9,1.193 0.35,0.351 1.055,0.33 1.364,0.716 0.314,0.383 0.605,0.792 0.846,1.259 0.211,0.413 0.756,0.463 0.955,0.891 0.2,0.425 -0.272,1.615 -0.068,2.056 0.204,0.442 0.92,0.29 1.12,0.735 0.2,0.449 0.5,0.78 0.715,1.216 0.218,0.434 0.559,0.72 0.801,1.129 0.24,0.412 0.12,1.284 0.39,1.675 0.269,0.387 0.195,1.227 0.504,1.576 0.308,0.348 0.715,0.565 1.07,0.852 0.352,0.29 0.88,0.336 1.276,0.563 z" />
  <path
     style="fill:#61effd;fill-rule:evenodd"
     inkscape:connector-curvature="0"
     id="path24"
     d="m 1237.812,23.001 c -0.66,0.283 -1.242,0.773 -1.927,0.985 -0.687,0.213 -1.34,0.52 -2.046,0.675 -0.707,0.155 -1.63,-0.27 -2.353,-0.16 -0.723,0.11 -1.653,-0.351 -2.388,-0.275 -0.735,0.076 -1.41,0.317 -2.152,0.373 -0.741,0.055 -1.442,0.226 -2.185,0.273 -0.746,0.046 -1.228,0.823 -1.972,0.874 -0.743,0.05 -1.814,-0.817 -2.55,-0.751 -0.736,0.066 -1.305,0.602 -2.031,0.696 -0.823,0.108 -1.623,0.281 -2.41,0.493 -0.786,0.213 -1.38,0.95 -2.15,1.212 -0.769,0.262 -1.596,0.361 -2.366,0.619 -0.77,0.256 -1.656,0.19 -2.446,0.386 -0.779,0.192 -1.404,0.81 -2.162,1.053 -0.76,0.244 -1.683,0.027 -2.423,0.323 -0.74,0.296 -1.57,0.339 -2.293,0.69 -0.72,0.35 -1.15,1.502 -1.852,1.91 -0.632,0.368 -1.571,-0.112 -2.178,0.325 -0.605,0.436 -0.878,1.789 -1.472,2.267 -0.593,0.476 -1.523,0.028 -2.113,0.514 -0.588,0.486 -1.032,1.377 -1.63,1.843 -0.597,0.467 -1.039,1.37 -1.655,1.787 -0.186,0.126 0.117,0.983 0.31,0.878 0.712,-0.39 1.591,-0.296 2.337,-0.585 0.745,-0.29 1.24,-1.305 2.012,-1.517 0.772,-0.212 1.81,0.343 2.603,0.188 0.792,-0.156 1.518,-0.505 2.323,-0.624 0.806,-0.12 1.707,0.04 2.518,-0.066 0.81,-0.105 1.678,-0.046 2.488,-0.158 0.809,-0.113 1.497,-0.575 2.296,-0.716 0.799,-0.141 1.49,-0.59 2.272,-0.778 0.791,-0.193 1.753,0.083 2.529,-0.166 0.773,-0.247 1.565,-0.452 2.303,-0.798 0.738,-0.349 1.488,-0.674 2.172,-1.165 0.684,-0.492 1.22,-1.379 1.83,-2.06 0.613,-0.683 1.336,-1.05 2.03,-1.496 0.697,-0.448 1.202,-1.404 1.96,-1.683 0.76,-0.28 1.568,-0.425 2.363,-0.607 0.793,-0.183 1.664,-0.156 2.471,-0.313 0.722,-0.142 1.42,-0.35 2.127,-0.525 0.708,-0.174 1.433,-0.308 2.124,-0.532 0.689,-0.225 1.408,-0.375 2.074,-0.668 0.664,-0.29 1.24,-0.813 1.875,-1.188 0.63,-0.375 1.318,-0.612 1.913,-1.087 0.059,-0.048 -0.11,-0.474 -0.176,-0.446" />
  <path
     style="fill:#535fd7;fill-rule:evenodd"
     inkscape:connector-curvature="0"
     id="path26"
     d="m 1143.62,150.985 c -0.052,0.095 -0.645,-0.278 -0.62,-0.392 0.26,-1.122 0.852,-2.034 1.251,-3.068 0.395,-1.042 0.612,-2.202 1.144,-3.157 0.532,-0.953 1.248,-1.783 1.879,-2.667 0.634,-0.885 1.39,-1.681 2.09,-2.517 0.693,-0.84 1.375,-1.688 2.124,-2.484 0.847,-0.888 1.929,-1.591 2.752,-2.48 0.823,-0.894 1.687,-1.754 2.387,-2.735 0.705,-0.975 0.53,-2.62 1.023,-3.774 0.489,-1.146 1.106,-2.193 1.312,-3.58 0.203,-1.382 0.168,-2.974 0.648,-4.16 0.48,-1.185 1.167,-2.22 1.849,-3.246 0.678,-1.033 1.54,-1.918 2.342,-2.845 0.818,-0.918 2.28,-1.276 3.157,-2.128 0.862,-0.847 1.44,-1.947 2.38,-2.725 0.938,-0.776 1.49,-1.905 2.481,-2.632 0.987,-0.73 2.169,-1.271 3.166,-1.983 1.002,-0.706 2.312,-1.11 3.29,-1.829 0.978,-0.716 1.712,-1.672 2.656,-2.418 0.947,-0.75 2.72,-0.668 3.61,-1.451 0.894,-0.788 0.851,-2.52 1.672,-3.39 0.818,-0.87 2.068,-1.292 2.771,-2.278 0.191,-0.27 1.165,0.733 0.997,1.023 -0.553,0.968 -0.545,2.492 -1.032,3.507 -0.495,1.012 -0.472,2.524 -0.921,3.565 -0.444,1.043 -2,1.012 -2.447,2.057 -0.448,1.039 0.15,3.062 -0.334,4.047 -0.49,0.979 -2.047,0.963 -2.609,1.881 -0.622,1.02 -0.346,2.858 -1.005,3.822 -0.667,0.963 -1.713,1.583 -2.44,2.492 -0.721,0.911 -2.068,1.268 -2.857,2.127 -0.79,0.854 -1.094,2.132 -1.934,2.944 -0.856,0.823 -2.027,1.384 -2.79,2.294 -0.762,0.908 -1.741,1.641 -2.484,2.57 -0.748,0.925 -0.892,2.338 -1.699,3.208 -0.8,0.88 -1.643,1.727 -2.576,2.501 -0.827,0.682 -1.067,1.828 -1.915,2.495 -0.843,0.669 -2.905,0.401 -3.767,1.074 -0.864,0.672 -0.783,2.058 -1.652,2.726 -0.874,0.665 -1.557,1.473 -2.408,2.16 -0.848,0.692 -1.46,1.554 -2.266,2.281 -0.81,0.722 -2.34,0.939 -3.112,1.7 -0.768,0.761 -2.24,1.043 -2.945,1.86 -0.701,0.816 -1.202,1.773 -1.809,2.655 -0.612,0.88 -0.843,2.009 -1.359,2.95 z" />
</svg>
