<?xml version="1.0" encoding="UTF-8" standalone="no"?>
<svg
   xmlns:dc="http://purl.org/dc/elements/1.1/"
   xmlns:cc="http://creativecommons.org/ns#"
   xmlns:rdf="http://www.w3.org/1999/02/22-rdf-syntax-ns#"
   xmlns:svg="http://www.w3.org/2000/svg"
   xmlns="http://www.w3.org/2000/svg"
   xmlns:xlink="http://www.w3.org/1999/xlink"
   xmlns:sodipodi="http://sodipodi.sourceforge.net/DTD/sodipodi-0.dtd"
   xmlns:inkscape="http://www.inkscape.org/namespaces/inkscape"
   width="1440"
   height="324"
   version="1.1"
   id="svg47"
   sodipodi:docname="header-illustration-light.svg"
   inkscape:version="0.92.2 (5c3e80d, 2017-08-06)">
  <metadata
     id="metadata51">
    <rdf:RDF>
      <cc:Work
         rdf:about="">
        <dc:format>image/svg+xml</dc:format>
        <dc:type
           rdf:resource="http://purl.org/dc/dcmitype/StillImage" />
      </cc:Work>
    </rdf:RDF>
  </metadata>
  <sodipodi:namedview
     pagecolor="#ffffff"
     bordercolor="#666666"
     borderopacity="1"
     objecttolerance="10"
     gridtolerance="10"
     guidetolerance="10"
     inkscape:pageopacity="0"
     inkscape:pageshadow="2"
     inkscape:window-width="1920"
     inkscape:window-height="1046"
     id="namedview49"
     showgrid="false"
     inkscape:zoom="0.27222222"
     inkscape:cx="288.36735"
     inkscape:cy="162"
     inkscape:window-x="-11"
     inkscape:window-y="-11"
     inkscape:window-maximized="1"
     inkscape:current-layer="svg47" />
  <defs
     id="defs27">
    <linearGradient
       x1="430.67099"
       y1="396.6369"
       x2="430.67099"
       y2="956.86963"
       id="a"
       gradientTransform="matrix(1.8111273,0,0,0.55214229,-60,-219)"
       gradientUnits="userSpaceOnUse"
       xlink:href="#c">
      <stop
         stop-color="#535FD7"
         stop-opacity=".08"
         offset="0%"
         id="stop2" />
      <stop
         stop-color="#F9F9F9"
         stop-opacity="0"
         offset="100%"
         id="stop4" />
    </linearGradient>
    <linearGradient
       x1="98.887%"
       y1="48.887%"
       x2="1.113%"
       y2="48.887%"
       id="b">
      <stop
         stop-color="#FFF"
         offset="0%"
         id="stop7" />
      <stop
         stop-color="#FFF"
         stop-opacity="0"
         offset="100%"
         id="stop9" />
    </linearGradient>
    <linearGradient
       x1="50%"
       y1="0%"
       x2="50%"
       y2="100%"
       id="c">
      <stop
         stop-color="#FFBC48"
         offset="0%"
         id="stop12" />
      <stop
         stop-color="#FFBC48"
         stop-opacity=".48"
         offset="100%"
         id="stop14" />
    </linearGradient>
    <linearGradient
       x1="508"
       y1="198"
       x2="508"
       y2="438"
       id="d"
       gradientUnits="userSpaceOnUse">
      <stop
         stop-color="#FE7E1F"
         offset="0%"
         id="stop17" />
      <stop
         stop-color="#FE7E1F"
         stop-opacity="0"
         offset="100%"
         id="stop19" />
    </linearGradient>
    <linearGradient
       x1="510.14884"
       y1="216.9257"
       x2="592.75848"
       y2="442.78872"
       id="e"
       gradientTransform="scale(0.99165956,1.0084106)"
       gradientUnits="userSpaceOnUse">
      <stop
         stop-color="#FE7E1F"
         stop-opacity=".11"
         offset="0%"
         id="stop22" />
      <stop
         stop-color="#FE7E1F"
         offset="100%"
         id="stop24" />
    </linearGradient>
    <linearGradient
       inkscape:collect="always"
       xlink:href="#c"
       id="linearGradient858"
       x1="714.47754"
       y1="271.5174"
       x2="349.72974"
       y2="271.5174"
       gradientTransform="matrix(1.2211437,0,0,0.81890445,-60,-219)"
       gradientUnits="userSpaceOnUse" />
    <linearGradient
       inkscape:collect="always"
       xlink:href="#c"
       id="linearGradient860"
       x1="352.67911"
       y1="198.20348"
       x2="39.344982"
       y2="198.20348"
       gradientTransform="matrix(-0.98957499,-0.28375606,0.26775094,-0.93375849,281.72959,221.02051)"
       gradientUnits="userSpaceOnUse" />
    <linearGradient
       inkscape:collect="always"
       xlink:href="#c"
       id="linearGradient862"
       x1="507.11319"
       y1="107.09922"
       x2="507.11319"
       y2="540.95058"
       gradientTransform="scale(0.99165947,1.0084107)"
       gradientUnits="userSpaceOnUse" />
    <linearGradient
       inkscape:collect="always"
       xlink:href="#c"
       id="linearGradient864"
       x1="166.82789"
       y1="36.653121"
       x2="166.82789"
       y2="370.30889"
       gradientTransform="scale(1.4097403,0.70935051)"
       gradientUnits="userSpaceOnUse" />
  </defs>
  <path
     inkscape:connector-curvature="0"
     style="fill:url(#a);fill-rule:evenodd;fill-opacity:1.0"
     id="path29"
     d="M 0,0 H 1440 V 439 H 0 Z" />
  <path
     inkscape:connector-curvature="0"
     style="fill:url(#linearGradient858);fill-rule:evenodd;fill-opacity:1.0"
     id="path31"
     d="M 501,132 C 523.708,72.206 629.225,25.872 817.55,-7 657.696,-99.667 552.179,-146 501,-146 c -76.768,0 -139,62.232 -139,139 0,76.768 104.938,228.691 139,139 z" />
  <path
     inkscape:connector-curvature="0"
     style="fill:url(#linearGradient860);fill-rule:evenodd;fill-opacity:1.0"
     id="path33"
     d="m 200.45763,-133.46109 c 12.48856,-111.42095 -317.452,-2.54523 -171.928971,95.301779 C 174.05045,59.688384 50.036304,112.60953 123.83044,133.76966 197.62458,154.92979 274.59928,112.26201 295.75941,38.467874 316.91926,-35.325302 187.96907,-22.040149 200.45763,-133.46109 Z" />
  <g
     style="fill:none;fill-rule:evenodd"
     id="g43"
     transform="translate(872,-221)">
    <path
       inkscape:connector-curvature="0"
       style="fill:url(#linearGradient862)"
       id="path35"
       d="M 508,528 C 693.316,600 718,433.98 718,318 718,202.02 623.98,108 508,108 392.02,108 334.965,209 298,318 261.035,427 322.684,456 508,528 Z" />
    <circle
       style="fill:url(#d)"
       id="circle37"
       r="120"
       cy="318"
       cx="508" />
    <path
       inkscape:connector-curvature="0"
       style="fill:url(#e)"
       id="path39"
       d="m 699.233,420 c 185.316,72 210,-94.02 210,-210 0,-115.98 -94.02,-210 -210,-210 -115.98,0 -173.035,101 -210,210 -36.965,109 24.683,138 210,210 z" />
    <path
       inkscape:connector-curvature="0"
       style="fill:url(#linearGradient864)"
       id="path41"
       d="m 142.155,251.626 c -0.93,0.393 -1.983,0.745 -3.115,1.04 a 42.301,42.301 0 0 1 -3.592,0.718 c -2.483,0.415 -5.11,0.562 -7.478,0.654 -2.413,0.053 -4.555,0.009 -6.153,-0.11 -0.292,-1.26 0.48,-1.203 1.135,-1.291 0.646,-0.095 1.171,-0.333 0.416,-2.153 1.267,0.792 1.414,4.198 3.684,2.732 -0.032,-2.311 -1.222,-1.893 -2.25,-1.85 1,-2.06 2.35,-1.258 3.73,-0.511 1.267,0.693 2.594,1.355 3.64,-0.202 0.07,-0.141 0.155,-0.294 0.274,-0.47 -0.089,0.178 -0.181,0.33 -0.275,0.47 -0.696,1.396 0.915,1.177 3.495,0.452 2.847,-0.77 6.814,-2.16 10.21,-2.482 -0.5,1.226 -1.859,2.22 -3.72,3.003 M 64.938,220.115 c -0.467,0.486 -2.151,0.446 -3.493,-1.555 -0.777,0.68 -1.763,0.735 -2.89,0.354 0.351,-0.807 0.934,-0.858 1.205,-1.9 -0.501,-0.336 -0.718,0.24 -0.927,0.865 -1.622,-3.32 3.296,-1.78 2.612,0.681 3.278,0.082 3.962,1.066 3.493,1.555 m -9.541,2.388 c 1.192,-1.973 4.994,0.195 5.449,1.427 -1.984,1.44 -2.689,-0.527 -5.449,-1.427 M 469.855,92.526 a 80.53,80.53 0 0 0 -2.239,-11.893 86.453,86.453 0 0 0 -0.652,-2.287 c -0.458,-1.509 -0.963,-3.086 -1.51,-4.533 a 87.754,87.754 0 0 0 -1.78,-4.42 c -0.639,-1.49 -1.322,-2.868 -2.053,-4.305 -1.46,-2.879 -3.113,-5.6 -4.958,-8.341 A 82.028,82.028 0 0 0 442.959,41.362 c -1.666,-1.456 -3.43,-2.812 -5.223,-4.095 l -0.675,-0.477 -0.619,-0.417 -1.225,-0.796 a 70.417,70.417 0 0 0 -2.494,-1.51 60.765,60.765 0 0 0 -10.104,-4.607 c -6.75,-2.356 -13.353,-3.332 -19.459,-3.448 -6.118,-0.116 -11.757,0.615 -16.883,1.666 -5.132,1.054 -9.761,2.427 -13.967,3.658 a 41.17,41.17 0 0 0 -3.17,1.107 c -1,0.423 -2,0.876 -2.97,1.37 a 62.726,62.726 0 0 0 -5.563,3.372 c -3.61,2.41 -7.052,5.305 -10.262,8.176 -6.441,5.785 -11.983,11.799 -16.894,15.464 -0.553,0.41 -1.17,-1.659 -2.263,-1.09 -2.776,1.507 -5.726,5.014 -8.426,8.629 -2.716,3.675 -5.18,7.362 -7.293,9.215 -2.48,-0.418 -3.719,2.338 -4.867,4.463 -1.163,2.11 -2.227,3.66 -4.64,0.82 a 50.43,50.43 0 0 1 -3.013,5.175 c -1.052,1.59 -2.143,3.094 -3.27,4.45 -1.127,1.367 -2.29,2.59 -3.47,3.755 a 48.999,48.999 0 0 1 -3.585,3.27 c -0.605,0.5 -1.213,0.98 -1.823,1.439 -0.608,0.464 -1.211,0.945 -1.818,1.389 a 73.019,73.019 0 0 1 -3.62,2.509 c -1.202,0.764 -2.362,1.59 -3.51,2.321 l -3.332,2.154 c 0.192,2.716 2.475,4.685 1.542,5.138 -1.364,1.048 -2.184,-3.293 -3.582,-2.235 0.143,2.518 2.34,3.489 1.302,4.091 -0.596,-1.144 -1.203,-2.168 -1.858,-2.789 0.401,1.816 1.492,2.415 0.994,3.066 -0.435,0.133 -0.243,0.992 -0.526,1.293 -0.805,-0.434 -1.362,-3.897 -2.228,-3.796 0.716,2.228 0.164,2.03 -0.431,1.867 -0.593,-0.16 -1.241,-0.31 -0.677,1.934 0.712,-0.32 1.36,0.381 1.969,1.56 -2.81,0.855 -5.627,3.412 -8.141,5.952 a 67.274,67.274 0 0 1 -1.887,1.785 c -0.614,0.573 -1.207,1.13 -1.805,1.595 -1.194,0.936 -2.378,1.565 -3.598,1.656 0.21,2.465 -0.502,3.237 -1.4,3.85 -0.449,0.307 -0.942,0.574 -1.377,0.99 -0.434,0.422 -0.806,1.02 -1.01,1.938 -1.708,-3.97 -2.53,-2.203 -2.544,-1.066 0.525,-0.145 1.058,-0.207 1.79,1.477 -0.222,2.16 -1.466,2.41 -2.873,2.36 -1.402,-0.07 -2.963,-0.514 -3.709,0.125 -0.826,0.714 0.266,5.705 -1.174,5.72 -1.692,0.015 -2.74,1.059 -3.62,2.35 -0.877,1.29 -1.608,2.913 -2.72,4.209 a 62.767,62.767 0 0 1 -5.19,5.31 c -1.91,1.756 -3.918,3.43 -6.067,5.13 -4.264,3.362 -8.924,6.656 -13.596,9.897 l -3.478,2.42 -3.417,2.403 c -2.29,1.592 -4.431,3.19 -6.528,4.773 -1.041,0.792 -2.01,1.6 -2.984,2.394 a 53.748,53.748 0 0 0 -2.766,2.407 c -1.715,1.635 -3.305,3.238 -4.554,4.942 -1.636,-0.61 -3.293,-0.448 -4.9,0.17 -1.609,0.616 -3.202,1.623 -4.677,2.753 -1.485,1.104 -2.874,2.28 -4.054,3.208 -1.187,0.909 -2.174,1.544 -2.832,1.573 -1.927,0.08 -1.166,2.651 -4.32,4.066 -5.504,2.441 -9.554,4.7 -14.213,-0.6 -1.03,1.713 -2.472,2.786 -4.088,3.453 -1.612,0.685 -3.384,1.006 -5.094,1.243 -0.854,0.125 -1.69,0.238 -2.482,0.382 -0.796,0.132 -1.55,0.288 -2.235,0.518 -1.371,0.454 -2.467,1.209 -3.119,2.533 1.096,0.364 2.349,-0.014 3.193,1.424 a 118.02,118.02 0 0 1 -3.784,0.91 l -0.967,-4.179 c -1.517,0.583 -3.037,0.914 -4.54,1.101 -1.502,0.194 -2.97,0.317 -4.408,0.442 -1.435,0.132 -2.82,0.35 -4.164,0.755 a 11,11 0 0 0 -3.885,2.047 c 0.625,0.16 1.574,1.533 0.866,2.03 -1.7,-0.07 -4.149,1.798 -4.701,-1.488 1.236,-1.354 3.078,2.857 3.29,-0.462 -1.345,-0.659 -2.439,-1.922 -4.119,-1.605 0.11,1.605 0.706,3.903 -0.012,4.328 -3.597,-0.708 -6.847,-0.296 -9.803,0.423 a 81.722,81.722 0 0 0 -4.22,1.154 c -1.335,0.37 -2.592,0.7 -3.746,0.892 0.165,-0.664 1.32,-4.176 -0.119,-4.287 -2.79,3.756 -7.19,2.769 -11.344,1.501 -4.187,-1.249 -8.06,-2.655 -11.012,0.68 -0.11,-2.808 -1.397,-3.656 -2.906,-3.434 -1.504,0.232 -3.25,1.628 -4.153,3.45 0.427,-2.31 -0.016,-3.607 -0.927,-4.34 -0.912,-0.731 -2.305,-0.897 -3.827,-1.018 -1.363,0.01 0.28,3.049 -1.977,2.844 a 22.319,22.319 0 0 0 -2.426,-2.066 18.46,18.46 0 0 0 -2.493,-1.516 c -1.695,-0.922 -3.495,-1.519 -5.37,-2.175 -1.872,-0.662 -3.877,-1.258 -5.937,-2.169 -2.085,-0.855 -4.219,-2.028 -6.409,-3.6 -1.89,1.816 -0.238,4.344 -1.883,3.853 -2.013,0.33 -3.943,-0.877 -5.512,-2.375 -1.56,-1.525 -2.832,-3.22 -3.747,-3.939 0.91,0.751 -1.236,1.477 -0.551,-0.345 1.556,-1.587 2.006,-0.572 2.657,0.445 0.637,1.026 1.45,2.12 3.443,0.654 -0.818,-0.535 -2.246,-2.27 -3.715,-3.662 -1.468,-1.405 -3.073,-2.368 -4.497,-1.327 -0.91,1.548 0.181,1.303 1.072,1.168 0.887,-0.127 1.574,-0.116 -0.065,2.028 -0.939,-0.164 -1.647,-0.407 -2.24,-0.747 -0.59,-0.345 -1.078,-0.768 -1.605,-1.264 -0.528,-0.496 -1.094,-1.065 -1.841,-1.708 a 27.228,27.228 0 0 0 -2.867,-2.247 c 1.047,-1.026 1.975,-1.08 3.11,-3.031 -1.702,1.165 -3.172,1.242 -4.785,1.068 -1.62,-0.17 -3.452,-0.486 -5.998,-0.125 0.63,1.263 1.38,2.38 2.173,3.448 0.398,0.53 0.81,1.044 1.238,1.539 0.437,0.48 0.887,0.946 1.348,1.398 0.925,0.9 1.873,1.774 2.88,2.576 1.008,0.799 2.04,1.574 3.085,2.354 4.24,3.065 8.66,6.013 13.118,10.84 -6.12,-3.142 -10.69,-5.824 -14.718,-8.697 a 78.118,78.118 0 0 1 -2.899,-2.244 c -0.945,-0.759 -1.825,-1.602 -2.715,-2.452 -1.787,-1.69 -3.433,-3.656 -5.097,-5.874 -0.902,0.887 -1.89,2.397 -2.626,1.983 1.156,-2.022 0.443,-3.593 -0.859,-4.835 -1.298,-1.243 -3.147,-2.25 -4.342,-2.947 2.79,3.318 -0.42,0.375 -2.026,1.026 0.895,0.303 1.12,1.97 1.069,3.344 -0.05,1.266 -0.35,2.267 -0.676,1.637 0.685,1.733 2.41,3.028 4.046,4.278 1.705,1.295 3.399,2.428 3.906,4 0.248,0.726 -2.23,2.033 -1.43,2.984 -0.065,-0.087 2.029,-2.506 2.568,-2.072 1.417,1.143 0.806,4.161 2.19,5.675 1.377,1.436 4.595,1.747 6.125,2.892 7.453,5.604 15.86,11.697 25.476,16.78 9.659,5.176 20.123,9.161 29.945,11.269 6.596,1.436 13.138,2.145 19.45,2.455 6.318,0.31 12.41,0.227 18.26,0.08 5.851,-0.149 11.466,-0.353 16.9,-0.332 5.437,0.052 10.823,0.257 16.262,0.965 a 71.631,71.631 0 0 0 -6.785,0.506 c -2.323,0.234 -4.682,0.628 -7.108,0.983 -4.804,0.775 -9.962,1.682 -15.402,2.371 -5.439,0.685 -11.182,1.13 -17.056,0.927 -5.865,-0.2 -11.866,-1.052 -17.615,-2.89 -1.44,3.536 -3.04,-0.917 -4.05,2.837 6.091,0.64 13.656,1.18 20.85,1.571 7.212,0.415 14.067,0.726 19.21,1.506 0.769,2.85 -3.223,-0.444 -2.484,2.397 1.63,0.639 5.048,-2.452 4.962,1.663 -11.275,0.66 -24.41,0.292 -38.021,-1.381 a 250.398,250.398 0 0 1 -20.455,-3.386 c -1.675,-0.323 -3.375,-0.73 -5.034,-1.092 -1.657,-0.353 -3.319,-0.765 -4.954,-1.161 l -2.436,-0.586 -2.43,-0.634 c -1.603,-0.425 -3.197,-0.813 -4.736,-1.232 2.094,1.56 4.346,2.897 6.708,4.124 2.334,1.155 4.834,2.26 7.443,3.196 2.636,0.99 5.385,1.845 8.358,2.755 l 4.568,1.31 c 1.588,0.461 3.181,0.867 4.874,1.34 7.204,1.961 14.92,3.12 22.508,3.651 7.584,0.527 15.039,0.442 22.008,0.107 l 2.603,-0.13 2.535,-0.162 c 1.696,-0.1 3.33,-0.225 4.943,-0.346 l 9.279,-0.727 c 5.963,-0.44 11.445,-0.857 16.254,-0.76 1.347,-1.56 5.83,-3.196 10.497,-4.348 2.34,-0.56 4.72,-1.03 6.819,-1.2 2.09,-0.198 3.885,-0.143 5.033,0.323 6.794,-2.314 13.9,-5.145 21.021,-8.311 7.125,-3.164 14.266,-6.66 21.204,-10.231 3.514,-1.788 6.793,-3.567 10.094,-5.262 3.107,-1.667 6.29,-3.284 9.109,-4.713 l 2.157,-1.06 2.087,-1 a 119.468,119.468 0 0 1 4.008,-1.81 c 0.649,-0.271 1.29,-0.539 1.924,-0.802 0.621,-0.252 1.24,-0.494 1.856,-0.725 a 62.787,62.787 0 0 1 3.623,-1.247 c -0.19,0.426 -0.867,0.617 -0.303,1.495 a 40.734,40.734 0 0 0 5.636,-2.54 36.896,36.896 0 0 0 5.13,-3.347 c 1.496,-1.182 2.912,-2.536 4.006,-3.925 1.059,-1.362 1.91,-2.846 2.433,-4.403 -2.027,-1.849 -2.76,2.658 -4.83,0.678 0.69,-0.933 1.418,-1.978 2.43,-2.821 a 5.992,5.992 0 0 1 1.694,-1.02 6.724,6.724 0 0 1 2.255,-0.44 c 0.738,1.156 0.381,1.529 1.432,2.906 l 1.214,-0.887 1.14,-0.805 2.267,-1.568 2.12,-1.393 c 0.702,-0.456 1.417,-0.926 2.047,-1.303 l 1.94,-1.2 c 0.332,-0.213 0.628,-0.382 0.923,-0.554 l 0.889,-0.524 0.884,-0.531 c 0.296,-0.184 0.587,-0.36 0.848,-0.502 a 62.645,62.645 0 0 0 1.6,-0.94 c 0.548,-0.348 1.015,-0.6 1.49,-0.887 0.476,-0.282 0.95,-0.59 1.412,-0.888 a 25.479,25.479 0 0 0 2.645,-1.757 25.853,25.853 0 0 0 2.72,-2.003 c 0.953,-0.679 1.877,-1.476 2.828,-2.345 2.746,-2.385 5.605,-5.194 8.695,-8.423 0.784,-0.785 1.587,-1.586 2.388,-2.443 l 1.217,-1.303 1.262,-1.293 5.28,-5.593 c 3.686,-3.848 7.666,-8.127 12.037,-12.539 2.172,-2.283 4.455,-4.483 6.812,-6.893 l 3.616,-3.547 c 1.229,-1.21 2.48,-2.451 3.757,-3.649 0.945,-0.9 1.923,-1.816 2.91,-2.722 l 1.485,-1.347 1.473,-1.267 c 1.94,-1.656 3.83,-3.21 5.317,-4.415 2.461,-1.991 4.606,-3.08 6.698,-4.062 2.093,-0.978 4.12,-1.86 6.514,-3.372 3.057,-1.919 6.56,-4.773 10.838,-7.16 2.118,-1.177 4.443,-2.257 6.874,-2.971 a 26.13,26.13 0 0 1 3.73,-0.841 c 1.245,-0.147 2.562,-0.248 3.829,-0.16 2.194,0.092 4.608,0.761 7.097,1.864 2.491,1.1 5.031,2.662 7.436,4.552 2.413,1.88 4.726,4.06 6.875,6.268 0.547,0.544 1.048,1.11 1.58,1.648 0.523,0.542 1.067,1.062 1.557,1.591 a 36.56,36.56 0 0 0 1.53,1.5 c 0.257,0.237 0.517,0.467 0.779,0.69 0.25,0.226 0.5,0.445 0.754,0.655 a 45.177,45.177 0 0 0 3.387,2.548 28.36,28.36 0 0 0 3.307,2.034 c 2.226,1.156 4.497,1.884 6.815,2.116 2.318,0.234 4.682,-0.03 7.049,-0.793 2.366,-0.759 4.732,-2.018 7.02,-3.68 2.274,-1.65 4.402,-3.668 6.418,-5.905 a 67.184,67.184 0 0 0 2.86,-3.407 c 0.909,-1.153 1.781,-2.32 2.62,-3.467 l 2.4,-3.291 a 66.434,66.434 0 0 1 2.228,-2.884 c 1.451,-1.749 2.846,-3.096 4.278,-3.689 0.92,-6.89 0.958,-13.78 0.223,-20.218" />
  </g>
</svg>
