<?xml version="1.0" encoding="UTF-8" standalone="no"?>
<svg
   xmlns:dc="http://purl.org/dc/elements/1.1/"
   xmlns:cc="http://creativecommons.org/ns#"
   xmlns:rdf="http://www.w3.org/1999/02/22-rdf-syntax-ns#"
   xmlns:svg="http://www.w3.org/2000/svg"
   xmlns="http://www.w3.org/2000/svg"
   xmlns:xlink="http://www.w3.org/1999/xlink"
   xmlns:sodipodi="http://sodipodi.sourceforge.net/DTD/sodipodi-0.dtd"
   xmlns:inkscape="http://www.inkscape.org/namespaces/inkscape"
   width="733"
   height="749"
   version="1.1"
   id="svg70"
   sodipodi:docname="hero-media-illustration-light.svg"
   inkscape:version="0.92.2 (5c3e80d, 2017-08-06)">
  <metadata
     id="metadata74">
    <rdf:RDF>
      <cc:Work
         rdf:about="">
        <dc:format>image/svg+xml</dc:format>
        <dc:type
           rdf:resource="http://purl.org/dc/dcmitype/StillImage" />
      </cc:Work>
    </rdf:RDF>
  </metadata>
  <sodipodi:namedview
     pagecolor="#ffffff"
     bordercolor="#666666"
     borderopacity="1"
     objecttolerance="10"
     gridtolerance="10"
     guidetolerance="10"
     inkscape:pageopacity="0"
     inkscape:pageshadow="2"
     inkscape:window-width="1920"
     inkscape:window-height="1046"
     id="namedview72"
     showgrid="false"
     inkscape:zoom="0.8912"
     inkscape:cx="200.84227"
     inkscape:cy="338.53209"
     inkscape:window-x="-11"
     inkscape:window-y="-11"
     inkscape:window-maximized="1"
     inkscape:current-layer="svg70" />
  <defs
     id="defs26">
    <linearGradient
       inkscape:collect="always"
       id="linearGradient964">
      <stop
         style="stop-color:#f6a800;stop-opacity:1;"
         offset="0"
         id="stop960" />
      <stop
         style="stop-color:#f6a800;stop-opacity:0;"
         offset="1"
         id="stop962" />
    </linearGradient>
    <linearGradient
       inkscape:collect="always"
       id="linearGradient952">
      <stop
         style="stop-color:#930101;stop-opacity:1;"
         offset="0"
         id="stop948" />
      <stop
         style="stop-color:#930101;stop-opacity:0;"
         offset="1"
         id="stop950" />
    </linearGradient>
    <linearGradient
       inkscape:collect="always"
       id="linearGradient936">
      <stop
         style="stop-color:#d80f06;stop-opacity:1;"
         offset="0"
         id="stop932" />
      <stop
         style="stop-color:#d80f06;stop-opacity:0;"
         offset="1"
         id="stop934" />
    </linearGradient>
    <linearGradient
       inkscape:collect="always"
       id="linearGradient920">
      <stop
         style="stop-color:#9f8d11;stop-opacity:1;"
         offset="0"
         id="stop916" />
      <stop
         style="stop-color:#9f8d11;stop-opacity:0;"
         offset="1"
         id="stop918" />
    </linearGradient>
    <linearGradient
       x1="74.95%"
       y1="53.242%"
       x2="2.797%"
       y2="52.227%"
       id="a">
      <stop
         stop-color="#61EFFD"
         stop-opacity="0"
         offset="0%"
         id="stop2" />
      <stop
         stop-color="#61EFFD"
         offset="51.929%"
         id="stop4" />
      <stop
         stop-color="#535FD7"
         offset="100%"
         id="stop6" />
    </linearGradient>
    <linearGradient
       x1="282.41692"
       y1="603.7672"
       x2="18.733804"
       y2="600.0579"
       id="b"
       gradientTransform="matrix(1.4349937,0.15082391,-0.07244342,0.68925309,26.392341,-28.595868)"
       gradientUnits="userSpaceOnUse">
      <stop
         stop-color="#61EFFD"
         stop-opacity="0"
         offset="0%"
         id="stop9" />
      <stop
         stop-color="#61EFFD"
         offset="51.929%"
         id="stop11" />
      <stop
         stop-color="#535FD7"
         stop-opacity=".24"
         offset="100%"
         id="stop13" />
    </linearGradient>
    <linearGradient
       x1="620.57892"
       y1="784.13863"
       x2="221.99703"
       y2="770.2211"
       id="c"
       gradientTransform="matrix(-1.2989049,-0.37245498,0.20398695,-0.71138702,1109.0866,1278.144)"
       gradientUnits="userSpaceOnUse">
      <stop
         stop-color="#61EFFD"
         stop-opacity="0"
         offset="0%"
         id="stop16" />
      <stop
         stop-color="#61EFFD"
         offset="100%"
         id="stop18" />
    </linearGradient>
    <linearGradient
       x1="265.69666"
       y1="601.22906"
       x2="342.06183"
       y2="622.64093"
       id="d"
       gradientTransform="matrix(1.3234409,0.13909925,-0.07854967,0.74735017,26.89757,-47.358207)"
       gradientUnits="userSpaceOnUse"
       xlink:href="#linearGradient936">
      <stop
         stop-color="#2FEAFC"
         offset="0%"
         id="stop21" />
      <stop
         stop-color="#FFF"
         stop-opacity=".48"
         offset="100%"
         id="stop23" />
    </linearGradient>
    <linearGradient
       inkscape:collect="always"
       xlink:href="#linearGradient920"
       id="linearGradient922"
       x1="154.49849"
       y1="199.10616"
       x2="879.55459"
       y2="199.10616"
       gradientUnits="userSpaceOnUse" />
    <linearGradient
       inkscape:collect="always"
       xlink:href="#linearGradient920"
       id="linearGradient930"
       x1="0.067594692"
       y1="403.15863"
       x2="528.63525"
       y2="403.15863"
       gradientUnits="userSpaceOnUse" />
    <linearGradient
       inkscape:collect="always"
       xlink:href="#linearGradient936"
       id="linearGradient938"
       x1="466.17814"
       y1="533.2586"
       x2="1193.98"
       y2="533.2586"
       gradientUnits="userSpaceOnUse" />
    <linearGradient
       inkscape:collect="always"
       xlink:href="#linearGradient952"
       id="linearGradient954"
       x1="322.49056"
       y1="401.91565"
       x2="548.87351"
       y2="401.91565"
       gradientUnits="userSpaceOnUse" />
    <linearGradient
       inkscape:collect="always"
       xlink:href="#linearGradient964"
       id="linearGradient966"
       x1="249.201"
       y1="580.84346"
       x2="987.02871"
       y2="580.84346"
       gradientUnits="userSpaceOnUse" />
  </defs>
  <path
     inkscape:connector-curvature="0"
     style="fill:url(#linearGradient938);fill-rule:evenodd;fill-opacity:1"
     id="path28"
     d="m 492.13751,242.00431 c 76.96754,-77.97788 269.76802,143.48043 482.09755,192.68848 141.55324,32.80606 214.80204,22.7948 219.74494,-30.03191 l -73.283,436.32708 C 994.79378,694.72625 904.15661,623.21132 848.78525,626.44515 793.414,629.67799 752.44066,653.17282 725.86546,696.92765 762.81005,508.58465 737.99617,438.53616 651.42384,486.78218 521.56578,559.15177 415.16986,319.98317 492.13751,242.00431 Z" />
  <path
     inkscape:connector-curvature="0"
     style="fill:url(#linearGradient922);fill-rule:evenodd;fill-opacity:1"
     id="path30"
     d="M 163.7933,26.000489 C 96.566447,-57.999793 408.9047,86.484947 621.23522,135.6931 762.78849,168.49916 848.89499,173.23669 879.55459,149.90669 668.27392,258.63547 535.00555,304.36766 479.74979,287.10027 424.49481,269.83497 388.86712,306.77723 372.86572,397.92696 409.81031,209.58396 384.99644,139.53547 298.4241,187.78149 168.56605,260.15108 231.01927,109.99967 163.79341,25.999494 Z" />
  <path
     inkscape:connector-curvature="0"
     style="fill:url(#linearGradient930);fill-rule:evenodd;fill-opacity:1.0"
     id="path32"
     d="m 41.746067,290.59359 c 39.150031,67.6891 153.894973,4.43972 366.224493,53.64777 141.55328,32.80606 158.56329,18.73501 51.02914,-42.21426 C 362.97614,468.67583 298.80524,533.2167 266.48602,495.64963 234.1667,458.08355 206.21063,468.74977 182.61682,527.6482 204.21817,391.85728 171.73168,348.08473 85.159347,396.33075 -44.696722,468.70054 2.5970314,222.90459 41.747062,290.59369 Z" />
  <path
     inkscape:connector-curvature="0"
     style="fill:url(#linearGradient966);fill-rule:evenodd;fill-opacity:1;opacity:0.339"
     id="path34"
     d="M 912.1365,829.54936 C 822.79727,892.97826 671.38265,641.40522 470.82406,556.07316 337.11773,499.18599 263.24338,496.32566 249.201,547.49216 L 397.00055,322.00005 c 49.21554,98.53887 140.99641,124.40824 275.34426,77.60963 201.52123,-70.19964 2.85531,70.1984 185.45722,98.39042 182.60027,28.1905 143.67317,268.12228 54.33447,331.54926 z" />
  <path
     inkscape:connector-curvature="0"
     style="fill:url(#linearGradient954);fill-rule:evenodd;fill-opacity:1"
     id="path36"
     d="m 397.47578,416.06444 c -0.0656,-0.25626 0.2782,-0.64747 0.16678,-0.88843 0.69012,-0.10846 0.7808,-0.29199 1.44374,-1.14637 0.3176,0.61356 -1.00869,1.00607 -1.61052,2.0348 z m -1.01796,0.004 c -0.81964,0.55637 -1.47,2.56338 -2.787,2.41792 1.23251,-1.30834 1.72868,-1.82932 1.6489,-2.54358 0.45656,-0.16317 0.82789,-0.099 1.57195,-1.01726 -0.10263,0.42159 -0.48036,0.93491 -0.3125,1.2703 -0.32442,0.26454 -0.26992,0.0139 -0.12135,-0.12738 z m 8.32976,-8.74522 c -1.36675,0.0695 1.26425,-1.52419 2.00686,-2.62963 -0.0478,0.29261 -0.48049,0.70665 -0.16515,0.88258 -0.64631,0.45694 -2.08997,1.07643 -1.84171,1.74705 z m 114.88275,-55.30947 c -4.30247,-0.51756 -8.86161,-2.28581 -13.3298,-2.49903 0.94616,-0.22936 3.32757,0.0541 5.9497,0.63036 2.62407,0.5674 5.45928,1.4315 7.3801,1.86867 z M 356.35245,450.6775 c -0.53329,0.14706 -1.03801,0.27098 -0.96238,-0.066 -2.56257,0.67483 -3.18291,1.52565 -5.67532,2.02084 0.22,0.37505 0.59927,0.66025 1.55032,0.60436 0.75499,-0.62048 2.01554,-1.68857 3.53384,-1.36308 -0.0279,-0.33677 0.14614,-0.62515 0.69046,-0.92489 0.0547,0.16863 0.82224,-0.0262 0.86308,-0.27127 z m -7.09971,2.03603 c -2.03547,0.17519 -1.14269,1.35297 0.10615,0.69289 0.0887,0.20841 0.20451,0.38851 0.99883,0.17838 0.0293,-0.52782 -1.1473,-0.33476 -1.10498,-0.87127 z m 19.42333,-8.54251 c 0.83201,-0.18605 2.99869,-1.75315 2.76645,-2.34668 -0.29442,0.37126 -1.00144,0.81277 -1.62121,1.23732 -0.63611,0.40774 -1.19208,0.78972 -1.14524,1.10936 z m 4.09445,-3.21462 c 1.46559,-1.01939 4.29841,-3.34703 3.36508,-3.41195 -0.99427,1.12725 -2.91173,2.44705 -3.36508,3.41195 z m -4.74719,1.36023 c -0.17531,0.56779 -0.76097,1.1749 -1.52926,1.78795 -0.38415,0.30652 -0.81467,0.61421 -1.2611,0.92022 -0.4312,0.30459 -1.01577,0.61419 -1.5146,0.91167 -1.02822,0.61791 -2.03405,1.11851 -2.74175,1.59515 -0.70278,0.48721 -1.1259,0.90628 -0.99305,1.29731 1.74545,-1.07042 1.43839,-0.89455 3.26788,-1.44433 -0.74282,-0.84427 1.34306,-0.93473 1.58485,-1.8002 0.51679,-0.26745 0.48067,0.0857 0.89106,-0.0974 0.99515,-0.88684 0.63997,-1.15242 2.58756,-1.91703 -0.0244,-0.48521 0.55616,-0.85254 1.25335,-1.29609 0.69095,-0.45125 1.52573,-0.95073 2.05737,-1.61781 l -0.19156,-0.29162 c -0.20689,0.12204 -0.40337,0.2311 -0.42423,0.066 -0.83004,0.72219 -0.83093,1.33345 -1.93655,2.085 -0.18837,-0.2933 -1.05108,0.35708 -1.04997,-0.19885 z m 14.42912,-11.68174 c -0.32783,-0.42057 -1.05219,-0.0151 -1.54427,-0.0879 -0.4863,0.39835 -0.95983,0.8091 -1.46754,1.19113 0.27031,0.47988 -0.72627,1.25596 -1.37149,1.95133 -0.34461,-0.2514 -1.02917,-0.11923 -0.64237,-0.83372 -0.30344,0.93541 -0.92617,2.20125 0.055,1.95446 -0.81982,0.17527 -0.57524,0.68965 -1.01955,1.20503 0.50367,-0.13308 3.66012,-2.80377 1.32273,-1.43962 2.29123,-1.34588 2.77629,-2.64127 4.66748,-3.94071 z m 123.78094,7.14779 c -0.14393,0.71889 2.84449,-0.69749 2.91914,-0.99632 -1.37544,0.44868 -1.12641,0.3371 -2.91924,0.99732 z m -81.47487,-62.3319 -2.2709,1.47772 c 0.25982,-0.023 1.59553,-0.78251 2.87533,-1.62233 1.27644,-0.84621 2.54922,-1.69583 2.59062,-2.05145 -1.71394,1.01943 -2.58561,1.61156 -3.19505,2.19606 z m 26.88788,-16.91009 c 2.52208,-0.24169 8.36698,-2.68009 10.84172,-3.73419 a 52.282,52.282 0 0 0 -5.41763,1.7694 l -2.5987,0.95157 c -0.8871,0.33712 -1.81393,0.67912 -2.82539,1.01322 z m 24.26752,-7.238 c -0.89771,0.13188 -4.19632,0.51016 -5.36691,1.459 0.45682,-0.15611 1.30269,-0.38796 2.24502,-0.62878 l 2.83566,-0.62301 c 1.68657,-0.36671 2.57479,-0.57099 0.28623,-0.20721 z m -18.4486,97.94012 c -1.80675,-0.32665 -4.91754,-0.51082 -8.16198,-1.16454 -1.62376,-0.2692 -3.26267,-0.72903 -4.77612,-1.18674 a 25.678,25.678 0 0 1 -3.9497,-1.66397 c 1.50895,0.50047 2.84376,1.00275 4.12845,1.34088 1.28899,0.31647 2.49151,0.69022 3.72394,0.89416 1.2316,0.2119 2.47336,0.49927 3.82162,0.62489 1.34983,0.16802 2.80136,0.33466 4.44047,0.40035 -0.0242,-0.40073 -1.70953,-0.17063 -2.4156,-0.36952 5.02755,0.43993 9.55404,0.2802 13.72185,-0.10224 4.16985,-0.39228 7.9942,-1.01795 11.66151,-1.75666 7.33151,-1.53405 13.98037,-3.45156 21.3804,-6.00102 1.10978,-0.51381 0.48378,-0.78573 0.84208,-1.03766 a 132.308,132.308 0 0 0 7.48953,-2.91309 c -0.0415,0.99713 1.39723,0.35801 2.27553,0.34374 1.02199,-0.32897 -0.59434,-0.63058 0.42131,-0.96625 -0.21293,-0.318 -1.04804,0.0698 -1.91807,0.4741 4.7326,-2.29287 10.65701,-5.36342 16.40029,-10.00149 2.84408,-2.29126 5.69338,-5.04351 8.13759,-8.17015 2.44604,-3.11538 4.56317,-6.57403 6.11255,-10.29446 -0.20964,-0.39708 1.04377,-2.25826 0.29885,-2.11635 1.64398,-2.64967 2.39404,-5.64367 2.657,-8.70998 0.25767,-3.08296 0.0496,-6.23095 -0.31268,-9.60531 -0.39356,1.02749 -0.2068,-1.61043 -1.17135,-2.842 -0.31909,-1.04911 -0.0236,-0.54044 0.21531,-0.50828 -1.7608,-5.99691 -5.36792,-11.28392 -9.72642,-15.32464 -4.36752,-4.06983 -9.47984,-7.01333 -14.72217,-8.86344 -5.2093,-1.82954 -10.39274,-2.65187 -15.13955,-2.8642 -4.75492,-0.22124 -9.08468,0.11401 -12.84142,0.65127 -3.07366,-0.0878 -6.41823,0.30679 -10.43014,1.50198 -6.58838,1.05511 -13.95484,2.67296 -19.31458,5.80488 -0.22197,-0.24153 0.1734,-0.4061 0.5997,-0.56843 -2.95194,0.71535 -7.84259,2.48383 -11.13517,4.24933 -0.7609,0.33229 0.61647,0.2287 0.33522,0.80948 -0.67699,0.36624 -2.32326,0.75127 -2.31345,1.17461 -1.77261,0.14249 1.93286,-0.88279 1.07963,-1.24094 -2.42054,0.6053 -4.62858,2.08761 -6.5256,3.55737 -5.18103,2.16832 -10.45041,5.3972 -15.09395,8.83264 -4.66238,3.4234 -8.68856,7.05042 -11.85773,9.75598 -0.20878,0.7714 1.47416,-0.74701 0.62101,0.17587 -0.5274,0.33974 -0.44979,0.53894 -0.34539,0.73191 -1.10713,0.77552 -0.21725,-0.50648 -1.11822,-0.19998 -4.97578,4.95101 -7.32666,7.11312 -10.21869,11.05642 0.15728,-1.05635 -0.46746,0.42949 -1.03699,0.50035 -0.70426,1.33369 -0.83892,2.4809 -2.58401,4.16974 -0.46234,-0.36533 1.41981,-1.86581 1.76579,-2.90937 -3.64677,3.54725 -6.90544,6.61644 -9.72759,11.54041 0.77529,0.28661 1.44359,-1.72857 1.95528,-1.14388 -1.40164,2.2478 -2.65683,3.81016 -4.72665,5.19238 -0.0623,-0.20162 0.45314,-0.58987 0.29939,-0.76289 0.14142,0.30948 -2.84456,2.97496 -2.17467,3.66174 -1.65494,0.84062 -2.59869,2.05161 -2.20836,3.14037 -0.91335,0.49122 -2.05692,1.52736 -2.71927,1.43864 -0.22627,0.3925 0.34424,0.26443 -0.53136,1.12361 1.66396,-0.32384 2.27837,-1.26175 4.49808,-3.41955 0.30939,-0.71458 -0.37767,-0.09 -0.58278,-0.6545 1.30773,-0.97163 0.65736,0.27019 1.97421,-0.59691 2.02626,-2.09669 1.6991,-2.55238 3.90109,-4.55116 0.29597,1.45089 -2.48006,3.46776 -3.94299,5.06459 -0.20571,0.63699 -1.46824,2.41275 -1.3867,2.40221 -0.17331,0.64442 -0.72127,0.38572 -0.63211,-0.14688 -2.51177,2.51624 -2.06598,3.16338 -2.0247,4.05257 -0.97421,0.56325 -1.31807,0.40041 -1.26349,-0.31983 -0.52097,0.58475 -1.16956,1.19731 -1.83887,1.81573 -0.67773,0.61252 -1.40258,1.21405 -2.02704,1.81708 -1.24891,1.20606 -2.17838,2.36726 -1.93409,3.3723 -0.39276,0.13971 -0.56772,-0.0898 -1.16456,0.40348 -0.0451,1.08925 -2.64449,1.70291 -2.63725,3.12646 -1.70549,0.21189 -3.48033,2.45164 -4.90382,3.51064 l -0.44854,-0.75502 a 43.884,43.884 0 0 0 -2.65899,2.01309 c -0.94468,0.6649 -1.87448,1.37962 -2.91746,2.00402 0.82681,0.0929 1.73779,-0.5383 2.71867,-1.26073 0.94771,-0.73194 1.75506,-1.57316 2.77665,-2.09926 -2.10567,2.11549 -5.06932,4.24336 -8.09687,5.87885 -3.07705,1.66649 -6.41873,3.08597 -10.4642,4.20825 l 3.43512,-1.34228 c 1.07248,-0.4745 2.15805,-0.86316 3.18367,-1.36067 1.03332,-0.48465 2.08261,-0.93946 3.10833,-1.51439 0.51207,-0.28001 1.03372,-0.56504 1.56684,-0.8539 l 1.57639,-0.99266 c -1.15623,0.0374 -1.94222,1.27798 -3.00444,1.06177 -1.07979,0.85984 -3.09653,1.97615 -5.20245,2.76434 -1.04516,0.40597 -2.09735,0.74484 -3.04613,0.94175 -0.94108,0.20978 -1.72253,0.35489 -2.26554,0.31692 -1.45006,1.17788 -5.99563,1.82529 -11.12153,1.80437 -1.97142,-0.6255 1.75261,-0.1627 1.80762,-0.47566 -0.10985,-0.59072 -2.77197,0.17018 -2.22266,-0.64587 2.64083,0.32181 2.51831,0.0907 3.32521,0.71751 0.0706,-0.77688 1.50416,-0.0661 1.65489,-0.81146 1.14054,-0.041 1.00418,0.2614 1.06007,0.54278 0.35617,-0.49951 0.5343,-1.07504 2.54068,-0.81087 -0.10691,-0.50393 -1.28671,-0.5294 -2.48858,-0.38323 -1.22348,0.11273 -2.53902,0.32639 -2.71229,0.58771 -0.66088,-0.0644 -1.39846,-0.19323 -2.15388,-0.31486 -0.75956,-0.13011 -1.51027,-0.20097 -2.30338,-0.34667 -1.60131,-0.32014 -3.17439,-0.53575 -4.69672,-0.87071 -1.2844,-0.51307 -1.08645,-0.89447 -0.83584,-1.26028 -0.13488,0.0683 -0.48061,-2.3e-4 -0.9052,-0.25602 a 9.098,9.098 0 0 1 -1.33201,-0.97859 c -0.83408,-0.74125 -1.3393,-1.48312 -0.60534,-1.38687 -0.76896,-0.63385 -1.3465,-1.24256 -1.86303,-1.69503 -0.50236,-0.48215 -0.96292,-0.82618 -1.33142,-1.25203 -0.73282,-0.83417 -1.4941,-1.56977 -2.2748,-2.97206 1.52543,1.09947 -0.21144,-0.49481 1.43947,0.32927 -0.0276,-0.64643 -0.96674,-2.15788 -1.3845,-3.23444 0.41303,-0.7439 1.61849,1.03686 2.26015,1.02587 -1.31172,-1.82209 1.04499,0.1219 -1.0846,-2.40454 0.81703,0.41568 1.89215,1.48491 0.74623,-0.46053 0.35049,-0.63685 1.38455,1.29181 1.83304,1.05237 0.44568,-0.43278 -0.13392,-1.51932 0.35746,-1.89903 0.2549,-0.36838 0.7651,0.41223 0.97192,-0.14923 l 1.12409,0.85217 c 0.37382,0.27961 0.8264,0.48906 1.22927,0.7315 0.42756,0.21789 0.79453,0.49577 1.25522,0.6568 l 1.32476,0.52134 c 1.79764,0.59516 3.64575,0.94928 5.55362,0.93563 0.93134,0.0647 1.90316,-0.0644 2.84223,-0.11151 0.47568,-0.0485 0.95805,-0.14164 1.43331,-0.20531 a 11.56,11.56 0 0 0 1.42781,-0.25816 c 1.90458,-0.34582 3.80712,-0.99752 5.68036,-1.63822 a 39.036,39.036 0 0 0 8.32752,-4.32322 l 0.96587,-0.66569 1.00417,-0.76221 2.0127,-1.51793 c 1.33813,-1.02172 2.62458,-2.15446 3.94401,-3.21837 5.18544,-4.45839 10.09803,-9.48744 15.02184,-14.72847 5.96395,-6.30715 12.80054,-14.00973 19.59237,-20.76982 5.79355,-5.78611 11.33654,-10.90072 17.08173,-15.30833 a 144.014,144.014 0 0 1 17.55025,-11.63424 c 6.13697,-3.42829 12.6732,-6.58938 20.204,-9.35938 7.52514,-2.7736 16.02207,-5.25502 26.09573,-6.94329 8.05141,-1.33269 17.53516,-2.38313 27.72503,-1.0155 2.53379,0.33569 5.10016,0.83971 7.64547,1.53457 1.27532,0.32207 2.536,0.74517 3.79872,1.15842 1.28252,0.47366 2.56477,0.94025 3.79548,1.50498 a 47.358,47.358 0 0 1 7.07039,3.83004 45.032,45.032 0 0 1 6.22961,4.84572 c 1.75985,1.6148 2.45923,2.5088 2.63393,2.71218 0.16256,0.22321 -0.25195,-0.1572 -0.9201,-0.79353 -0.65611,-0.65517 -1.63289,-1.45465 -2.50195,-2.22672 l -2.09008,-1.65856 c -4.1482,-3.08551 -8.44159,-5.44019 -12.90624,-7.12208 -4.43555,-1.69091 -8.75453,-2.7019 -13.07261,-3.30054 -8.62281,-1.1808 -16.93382,-0.67879 -25.3526,0.77216 1.99769,-0.0454 5.88143,-0.4708 8.51624,-0.80925 a 178.5,178.5 0 0 0 -11.04003,1.82299 c -1.86527,0.36402 -3.7553,0.72444 -5.64463,1.16436 -1.89976,0.39558 -3.79594,0.87199 -5.69401,1.34719 -7.59464,1.89452 -15.07622,4.4354 -21.63542,7.29847 0.31777,-0.66041 1.27568,-0.69547 2.80118,-1.48132 -5.26886,1.51154 -8.84404,3.94717 -14.68727,6.70449 0.94195,-0.0649 1.88451,-0.54701 3.0183,-1.18398 1.12892,-0.6385 2.44343,-1.45456 4.16116,-2.04123 0.57505,-0.23819 1.33981,-0.68369 1.5089,-0.47487 l -1.43827,0.63513 c -5.83904,3.09059 -11.68594,6.43776 -17.1328,10.09243 -5.43843,3.64147 -10.50371,7.61679 -14.69527,11.69801 3.27374,-2.76294 7.0675,-5.50843 11.01216,-8.3024 3.96068,-2.7933 8.16889,-5.54047 12.39095,-8.42897 -0.13988,0.24975 -0.27116,0.49436 0.16341,0.31078 7.7622,-4.39772 15.5843,-7.74844 23.09014,-10.48184 -9.9762,4.02324 -20.10204,8.73361 -29.76514,15.25024 5.04184,-2.54694 10.07071,-6.10879 16.7856,-8.84589 0.78938,-0.2589 0.5772,-0.52655 0.50194,-0.79589 4.86807,-1.55366 9.61186,-3.56079 14.27998,-5.0872 a 164.894,164.894 0 0 1 13.3,-3.6367 c 4.45429,-0.95563 8.84904,-1.7848 13.36872,-2.34845 9.00779,-1.10448 18.62232,-1.33274 28.52045,1.19374 2.4514,0.61259 4.92633,1.45089 7.39418,2.49054 a 46.498,46.498 0 0 1 7.1169,3.74142 c 4.58251,2.89486 8.83085,6.70179 12.32133,11.52003 a 38.381,38.381 0 0 1 4.40011,8.03596 c 1.16252,2.9165 2.00855,6.07926 2.3464,9.28413 0.35162,3.19827 0.35354,6.46135 -0.10385,9.62688 a 45.58,45.58 0 0 1 -2.32841,9.25733 c -0.76713,1.96055 -1.60517,3.77288 -2.92071,6.29217 a 19.986,19.986 0 0 1 -0.85494,1.45661 c -0.32377,0.46873 -0.67455,0.92657 -1.02166,1.38781 -0.68303,0.93071 -1.44453,1.79484 -2.09589,2.70172 -1.69381,2.2724 -3.41863,4.69639 -5.41314,6.71094 -1.93651,1.99853 -3.94317,3.60256 -5.98215,4.39477 -1.15948,1.05357 -4.23818,2.90792 -2.88022,1.84102 2.65458,-2.10505 5.21726,-4.15843 7.5291,-6.27437 2.36438,-2.17577 4.41978,-4.40614 6.06157,-6.62368 3.39765,-4.67847 6.07016,-9.88162 7.68796,-15.54454 0.82154,-2.82259 1.30357,-5.78242 1.51043,-8.77418 0.21423,-2.99502 -0.028,-6.05711 -0.56002,-9.04107 -1.12657,-6.0137 -3.85536,-11.51608 -7.3508,-15.88539 a 42.83,42.83 0 0 0 -5.70823,-5.90301 47.523,47.523 0 0 0 -6.41868,-4.52975 c 3.66876,2.48108 7.18212,5.35005 10.2224,8.83594 1.55122,1.70549 2.91667,3.62875 4.19706,5.60542 1.22163,2.02881 2.33832,4.14714 3.18196,6.40469 1.75276,4.49484 2.4535,9.35571 2.29782,13.89832 a 37.872,37.872 0 0 1 -2.63095,12.6141 c -1.37458,3.51155 -3.299,7.19356 -5.60087,10.48699 -2.28208,3.29652 -4.96349,6.22126 -7.46752,8.36727 -5.63443,4.83654 -11.8852,8.53441 -18.18173,11.50049 -6.31795,2.96886 -12.67975,5.24534 -18.98199,7.25157 -6.3407,2.01827 -12.93797,3.77027 -19.82738,4.77162 -6.86874,1.00553 -14.09116,1.23383 -21.26137,0.0277 1.67523,-0.24926 2.95308,-0.15215 3.74668,-0.22158 z m -75.22613,-17.06677 c 0.48399,-0.47199 1.15022,0.32602 0.14825,0.78983 -0.0337,-0.15739 0.18581,-0.38066 0.0734,-0.51616 -1.55208,0.8474 0.0528,0.88437 -1.16285,1.62133 0.32539,-1.14426 -0.78184,0.63676 -1.94416,1.28683 0.87827,-1.26714 2.06513,-2.24644 2.8853,-3.18083 z m 15.60841,-18.90302 c 0.62493,-0.20581 0.99254,-1.17771 2.10834,-2.03577 -0.36651,1.26763 -1.52758,2.14507 -1.6416,3.0481 -0.9348,0.56136 -0.52505,-0.6967 -0.46674,-1.01233 z m 4.85777,-4.44055 c 0.20101,-0.2383 0.2955,-0.19016 0.38334,-0.12663 0.23555,-0.59564 -0.24398,-1.40017 0.82924,-1.767 0.28962,0.34416 -0.99719,1.21241 -0.18104,1.38768 -0.48617,0.55019 -0.84667,0.76569 -1.03143,0.50495 z m -0.92795,1.13723 c -0.71657,0.36007 0.46,-1.90837 1.08934,-2.02221 0.35202,0.4392 -0.90394,1.40621 -1.08934,2.02221 z m 3.74514,-5.03813 0.36096,0.38283 c -0.49504,0.41452 -1.19785,1.38035 -1.29614,0.74661 0.48897,-0.43327 0.40874,-0.68403 0.93518,-1.12944 z m 6.27339,-6.02727 c 0.32056,-0.22774 0.41504,0.0979 0.77086,-0.21661 -0.0841,0.57034 -1.54328,1.52906 -1.5287,2.06955 -0.98733,0.34367 0.19069,-1.30723 0.99164,-1.59006 l -0.23391,-0.26188 z m -1.64612,1.95263 c -0.56268,0.331 -2.59374,2.25323 -2.2988,2.84329 -0.68494,0.0879 -0.77949,0.27 -1.44029,1.11355 -0.52057,-0.16532 0.28122,-0.75273 0.0459,-1.01074 1.7112,-0.86889 2.58246,-3.40874 3.69319,-2.9461 z m 19.00815,-16.55077 c 1.07226,-0.86466 0.83378,0.4476 1.27124,0.63838 -0.90915,0.56606 -1.50875,-0.20584 -1.27124,-0.63838 z m 11.3488,-7.83163 c -0.34355,0.48474 -1.08438,0.98002 -2.09043,1.48261 0.009,-0.49171 1.62448,-1.45014 2.09043,-1.48261 z m -22.79293,14.85788 c -0.0614,0.22985 -0.11655,0.45833 0.0477,0.63648 -1.02485,-0.20827 -3.06466,3.92113 -3.41092,2.14521 0.75241,-0.0697 1.26374,-0.71582 1.75058,-1.37756 0.49752,-0.64855 0.97556,-1.30317 1.61261,-1.40413 z m 26.62323,-16.956 c -0.58016,0.69818 -2.35108,1.58995 -3.50866,2.72115 0.38584,-0.48533 0.91688,-0.9745 0.88854,-1.45107 1.34973,-0.48155 1.73323,-1.26978 2.62012,-1.27008 z m -23.68809,14.20976 c 0.29027,-0.10222 0.58217,-0.2103 0.97924,-0.51546 0.49818,0.22531 -0.36581,0.71568 -0.16017,0.99772 -0.59808,0.24684 -1.12257,0.0711 -0.81907,-0.48226 z m -1.90903,1.69876 c -0.27882,-0.25554 0.95155,-0.88337 1.32631,-1.26328 0.0759,0.3589 -0.35768,0.8201 -0.0428,1.13473 -0.97724,0.63031 -0.8936,-0.0316 -1.28347,0.12855 z m 47.47731,-25.05754 c -0.31378,0.75635 -3.00857,1.11061 -4.0572,1.7505 0.58627,-1.10075 2.14323,-0.86571 4.0572,-1.7505 z m 0.82708,-2.57867 c -0.23975,0.22417 -0.28404,0.48296 -0.17764,0.77166 -0.72051,0.17766 -1.42956,0.3897 -2.14039,0.59955 0.0586,-0.91186 1.35363,-0.64303 2.31803,-1.37121 z m 17.53921,81.97642 c 3.24835,-1.45945 9.382,-2.39745 16.2275,-5.02831 -3.10513,1.53182 -11.02368,3.68591 -16.2275,5.02831 z m 16.4527,-0.83781 c 1.94396,-0.95001 3.18399,-1.34455 3.32307,-1.29977 0.13615,0.0535 -0.84147,0.56313 -3.32307,1.29977 z m 12.50027,-4.91529 c 1.64988,-1.04125 2.88439,-1.62239 3.09935,-1.62996 0.21246,-0.0219 -0.6009,0.58941 -3.09935,1.62996 z m -38.45952,-85.62418 c 0.12057,-0.80279 3.47524,-0.83431 4.97249,-1.22695 0.92788,0.0402 -0.15019,0.20442 -1.54445,0.42086 -1.39751,0.20907 -3.09319,0.56678 -3.42804,0.80609 z m 23.50499,-4.25939 c -0.44529,0.23776 -1.59165,0.20978 -2.74848,0.16662 -1.14216,-0.0104 -2.29443,-0.03 -2.70365,0.2568 -0.53105,-0.25692 0.69269,-0.4199 2.12822,-0.47414 1.43653,-0.0541 3.07868,0.002 3.32391,0.0507 z m 2.5818,-0.26458 c 0.36922,-0.0115 0.40263,0.0916 0.42248,0.19926 6.36873,0.11635 -0.0112,0.90981 -0.42248,-0.19926 z m 37.7305,15.05036 c -1.87017,-1.48361 -3.08049,-2.55801 -3.20719,-2.76841 -0.1287,-0.2106 0.90699,0.37285 3.20719,2.76841 z m -6.4805,-5.21396 c -0.70387,-0.47819 -1.64087,-0.97687 -2.64369,-1.54782 -1.02714,-0.52122 -2.12449,-1.11116 -3.23407,-1.62294 -2.19421,-1.07927 -4.36164,-2.00188 -5.52985,-2.88383 2.02268,0.75959 4.29692,1.8332 6.37314,2.9061 2.05331,1.11876 3.88511,2.27858 5.03447,3.14849 z m 8.41437,63.68341 c -1.11722,1.53161 -0.79965,1.20803 -0.005,0.2549 0.80132,-0.94642 1.97719,-2.6056 2.66167,-3.64575 1.87918,-2.7255 3.59614,-6.27045 3.68102,-7.33641 -0.3826,0.77022 -0.80308,1.67121 -1.28773,2.60868 -0.5113,0.91356 -1.0275,1.91207 -1.60479,2.86998 a 75.44,75.44 0 0 1 -3.4455,5.2486 z" />
  <path
     style="fill:#960c01;fill-opacity:0.94509804;fill-rule:evenodd"
     inkscape:connector-curvature="0"
     id="path38"
     d="m 113.696,9 1.812,0.833 0.492,1.765 -0.579,1.68 L 113.696,14 112.072,13.18 111,11.599 111.81,9.762 Z" />
  <path
     style="fill:#a11a01;fill-rule:evenodd;fill-opacity:0.98039216"
     inkscape:connector-curvature="0"
     id="path40"
     d="M 43.314,43 46.213,44.334 47,47.157 46.074,49.845 43.314,51 40.714,49.69 39,47.156 l 1.295,-2.94 z" />
  <path
     style="fill:#a42001;fill-rule:evenodd;fill-opacity:0.97647059"
     inkscape:connector-curvature="0"
     id="path42"
     d="M 88.314,38 91.213,39.334 92,42.157 91.074,44.845 88.314,46 85.714,44.69 84,42.156 l 1.295,-2.94 z" />
  <path
     style="fill:#a21801;fill-rule:evenodd;fill-opacity:0.98431373"
     inkscape:connector-curvature="0"
     id="path44"
     d="m 108.696,72 1.812,0.833 0.492,1.765 -0.579,1.68 -1.725,0.722 -1.624,-0.82 -1.072,-1.581 0.81,-1.837 z m -44,-12 1.812,0.833 L 67,62.598 66.421,64.278 64.696,65 63.072,64.18 62,62.599 62.81,60.762 Z" />
  <path
     style="fill:#a52001;fill-rule:evenodd;fill-opacity:0.67843139"
     inkscape:connector-curvature="0"
     id="path46"
     d="M 64.696,4 66.508,4.833 67,6.598 66.421,8.278 64.696,9 63.072,8.18 62,6.599 62.81,4.762 Z" />
  <path
     style="fill:#61effd;fill-opacity:0.23999999;fill-rule:evenodd"
     inkscape:connector-curvature="0"
     id="path48"
     d="m 121.696,43 1.812,0.833 0.492,1.765 -0.579,1.68 -1.725,0.722 -1.624,-0.82 -1.072,-1.581 0.81,-1.837 z" />
  <path
     style="fill:#ffffff;fill-rule:evenodd"
     inkscape:connector-curvature="0"
     id="path50"
     d="m 171.618,63 1.087,0.5 0.295,1.059 -0.347,1.008 -1.035,0.433 -0.975,-0.492 -0.643,-0.95 0.486,-1.101 z m 445.078,541 1.812,0.833 0.492,1.765 -0.579,1.68 -1.725,0.722 -1.624,-0.82 -1.072,-1.582 0.81,-1.837 z" />
  <path
     style="fill:#ffffff;fill-opacity:0.31999996;fill-rule:evenodd"
     inkscape:connector-curvature="0"
     id="path52"
     d="m 690.696,546 1.812,0.833 0.492,1.765 -0.579,1.68 -1.725,0.722 -1.624,-0.82 -1.072,-1.582 0.81,-1.837 z" />
  <path
     style="fill:#ffffff;fill-rule:evenodd"
     inkscape:connector-curvature="0"
     id="path54"
     d="m 633.696,585 1.812,0.833 0.492,1.765 -0.579,1.68 -1.725,0.722 -1.624,-0.82 -1.072,-1.582 0.81,-1.837 z" />
  <path
     style="fill:#ffffff;fill-opacity:0.63999999;fill-rule:evenodd"
     inkscape:connector-curvature="0"
     id="path56"
     d="m 606.314,311 2.899,1.334 0.787,2.823 -0.926,2.688 -2.76,1.155 -2.6,-1.31 -1.714,-2.533 1.295,-2.94 z" />
  <path
     style="fill:#ffffff;fill-rule:evenodd"
     inkscape:connector-curvature="0"
     id="path58"
     d="m 639.696,319 1.812,0.833 0.492,1.765 -0.579,1.68 -1.725,0.722 -1.624,-0.82 -1.072,-1.582 0.81,-1.837 z m -28,18 1.812,0.833 0.492,1.765 -0.579,1.68 -1.725,0.722 -1.624,-0.82 -1.072,-1.582 0.81,-1.837 z m -16.078,268 1.087,0.5 0.295,1.059 -0.347,1.008 -1.035,0.433 -0.975,-0.492 -0.643,-0.95 0.486,-1.101 z" />
  <path
     style="fill:#9b0e01;fill-rule:evenodd;fill-opacity:0.99215686"
     inkscape:connector-curvature="0"
     id="path60"
     d="m 427.409,523.063 c 0.18,-0.377 0.52,-0.694 0.646,-1.09 0.124,-0.396 0.326,-0.765 0.411,-1.176 0.086,-0.412 -0.274,-0.997 -0.22,-1.423 0.055,-0.426 -0.328,-1.023 -0.297,-1.462 0.03,-0.438 0.19,-0.825 0.208,-1.27 0.02,-0.442 0.122,-0.854 0.139,-1.3 0.015,-0.447 0.585,-0.668 0.604,-1.115 0.018,-0.446 -0.65,-1.18 -0.616,-1.624 0.036,-0.442 0.425,-0.737 0.487,-1.17 0.068,-0.49 0.187,-0.961 0.336,-1.42 0.152,-0.457 0.699,-0.738 0.887,-1.177 0.188,-0.441 0.263,-0.933 0.451,-1.374 0.188,-0.44 0.14,-0.991 0.288,-1.45 0.147,-0.453 0.605,-0.758 0.792,-1.19 0.187,-0.431 0.033,-1.027 0.26,-1.442 0.228,-0.413 0.272,-0.917 0.543,-1.31 0.268,-0.394 1.13,-0.489 1.444,-0.857 0.283,-0.33 -0.055,-0.98 0.283,-1.284 0.337,-0.304 1.34,-0.258 1.704,-0.542 0.363,-0.286 0.062,-0.924 0.435,-1.204 0.374,-0.28 1.037,-0.4 1.4,-0.682 0.362,-0.283 1.037,-0.393 1.36,-0.692 0.098,-0.09 0.713,0.246 0.63,0.344 -0.306,0.36 -0.264,0.908 -0.497,1.306 -0.236,0.399 -0.988,0.526 -1.164,0.958 -0.177,0.432 0.207,1.149 0.08,1.603 -0.129,0.452 -0.402,0.83 -0.501,1.298 -0.1,0.466 0.007,1.033 -0.081,1.502 -0.086,0.47 -0.047,1.001 -0.136,1.468 -0.09,0.466 -0.431,0.812 -0.536,1.27 -0.105,0.459 -0.439,0.808 -0.575,1.25 -0.14,0.449 0.069,1.059 -0.11,1.487 -0.176,0.43 -0.32,0.876 -0.57,1.271 -0.252,0.396 -0.48,0.805 -0.836,1.153 -0.356,0.348 -1.007,0.567 -1.502,0.856 -0.498,0.29 -0.76,0.684 -1.076,1.053 -0.319,0.372 -1.02,0.577 -1.212,1.005 -0.19,0.429 -0.274,0.903 -0.389,1.362 -0.116,0.458 -0.065,0.985 -0.156,1.453 -0.08,0.42 -0.216,0.817 -0.317,1.228 -0.103,0.41 -0.174,0.831 -0.316,1.224 -0.14,0.394 -0.218,0.813 -0.408,1.188 -0.19,0.375 -0.556,0.682 -0.806,1.035 -0.25,0.353 -0.395,0.747 -0.723,1.073 -0.032,0.031 -0.363,-0.095 -0.344,-0.133" />
  <path
     style="fill:#9d1101;fill-opacity:0.98823529;fill-rule:evenodd"
     inkscape:connector-curvature="0"
     id="path62"
     d="m 428.286,464.538 c 0.342,-0.047 0.727,0.07 1.057,-0.033 0.33,-0.101 0.68,-0.138 0.994,-0.295 0.317,-0.157 0.503,-0.77 0.802,-0.965 0.3,-0.198 0.465,-0.845 0.75,-1.067 0.286,-0.218 0.607,-0.322 0.884,-0.566 0.275,-0.246 0.58,-0.393 0.847,-0.651 0.267,-0.256 0.728,0.054 0.997,-0.2 0.269,-0.251 0.274,-1.222 0.536,-1.463 0.261,-0.245 0.658,-0.125 0.924,-0.356 a 5.4,5.4 0 0 1 0.953,-0.645 c 0.327,-0.184 0.816,0.032 1.162,-0.116 0.346,-0.144 0.633,-0.427 0.972,-0.583 0.341,-0.156 0.57,-0.558 0.883,-0.77 0.306,-0.207 0.763,-0.089 1.085,-0.265 0.324,-0.175 0.483,-0.69 0.821,-0.823 0.34,-0.138 0.58,-0.468 0.938,-0.568 0.356,-0.097 1.01,0.377 1.392,0.306 0.342,-0.065 0.362,-0.735 0.725,-0.756 0.364,-0.018 1.094,0.624 1.485,0.63 0.391,0.006 0.402,-0.662 0.793,-0.653 0.39,0.006 0.952,0.299 1.336,0.28 0.385,-0.018 0.958,0.268 1.33,0.213 0.111,-0.017 0.48,0.58 0.376,0.61 -0.382,0.116 -0.558,0.569 -0.899,0.754 -0.34,0.189 -0.987,-0.151 -1.294,0.082 -0.307,0.233 -0.308,1.006 -0.606,1.273 -0.296,0.266 -0.665,0.4 -0.951,0.687 -0.287,0.287 -0.469,0.777 -0.754,1.076 -0.287,0.298 -0.518,0.708 -0.814,1 -0.296,0.293 -0.723,0.32 -1.035,0.582 -0.313,0.262 -0.73,0.305 -1.064,0.521 -0.338,0.223 -0.52,0.798 -0.881,0.981 -0.363,0.176 -0.714,0.386 -1.11,0.488 -0.393,0.103 -0.79,0.208 -1.228,0.193 -0.44,-0.018 -0.995,-0.34 -1.486,-0.52 -0.492,-0.178 -0.883,-0.108 -1.3,-0.114 -0.423,-0.005 -0.977,-0.405 -1.344,-0.283 -0.37,0.12 -0.707,0.338 -1.054,0.53 -0.344,0.195 -0.643,0.542 -0.99,0.748 -0.312,0.182 -0.638,0.32 -0.961,0.468 -0.322,0.152 -0.636,0.336 -0.97,0.448 -0.336,0.112 -0.659,0.272 -1.01,0.325 -0.351,0.052 -0.749,-0.08 -1.117,-0.104 -0.368,-0.024 -0.708,0.065 -1.092,-0.039 -0.038,-0.01 -0.117,-0.354 -0.082,-0.36" />
  <path
     style="fill:#ffffff;fill-opacity:0.47999998;fill-rule:evenodd"
     inkscape:connector-curvature="0"
     id="path64"
     d="m 510.24,452.562 c 0.503,0.218 0.947,0.597 1.47,0.761 0.524,0.164 1.022,0.401 1.561,0.521 0.54,0.12 1.244,-0.208 1.796,-0.123 0.552,0.085 1.262,-0.272 1.823,-0.213 0.561,0.06 1.076,0.245 1.642,0.288 0.566,0.043 1.101,0.175 1.668,0.211 0.57,0.036 0.937,0.636 1.505,0.675 0.567,0.04 1.384,-0.63 1.946,-0.58 0.562,0.051 0.996,0.465 1.55,0.538 0.628,0.083 1.24,0.217 1.84,0.381 0.6,0.164 1.053,0.734 1.64,0.936 0.587,0.202 1.218,0.28 1.806,0.478 0.588,0.198 1.264,0.147 1.867,0.298 0.594,0.15 1.071,0.626 1.65,0.814 0.58,0.188 1.284,0.021 1.85,0.25 0.564,0.228 1.198,0.261 1.75,0.533 0.548,0.27 0.877,1.16 1.413,1.475 0.482,0.284 1.2,-0.087 1.662,0.251 0.462,0.337 0.67,1.382 1.123,1.751 0.453,0.368 1.163,0.022 1.613,0.397 0.45,0.376 0.788,1.064 1.244,1.424 0.456,0.361 0.793,1.06 1.263,1.381 0.142,0.097 -0.089,0.76 -0.237,0.678 -0.543,-0.3 -1.214,-0.229 -1.783,-0.452 -0.569,-0.224 -0.946,-1.008 -1.536,-1.172 -0.589,-0.164 -1.38,0.265 -1.986,0.145 -0.605,-0.12 -1.159,-0.39 -1.773,-0.482 -0.615,-0.093 -1.303,0.031 -1.922,-0.05 -0.618,-0.082 -1.28,-0.036 -1.899,-0.123 -0.617,-0.087 -1.142,-0.444 -1.752,-0.553 -0.61,-0.109 -1.138,-0.455 -1.734,-0.6 -0.604,-0.15 -1.338,0.063 -1.93,-0.129 -0.59,-0.19 -1.195,-0.349 -1.758,-0.617 -0.563,-0.269 -1.136,-0.52 -1.658,-0.9 -0.522,-0.38 -0.93,-1.065 -1.397,-1.59 -0.467,-0.529 -1.019,-0.812 -1.548,-1.157 -0.533,-0.346 -0.918,-1.084 -1.497,-1.3 -0.579,-0.216 -1.196,-0.328 -1.803,-0.469 -0.605,-0.14 -1.27,-0.12 -1.886,-0.242 -0.55,-0.109 -1.083,-0.27 -1.623,-0.405 -0.54,-0.135 -1.094,-0.238 -1.62,-0.41 -0.527,-0.175 -1.076,-0.29 -1.584,-0.517 -0.507,-0.225 -0.947,-0.628 -1.43,-0.918 -0.482,-0.29 -1.007,-0.473 -1.46,-0.84 -0.046,-0.037 0.082,-0.366 0.133,-0.344" />
  <path
     style="fill:#ffffff;fill-rule:evenodd"
     inkscape:connector-curvature="0"
     id="path66"
     d="m 542.14,562.339 c -0.26,-0.468 -0.378,-1.03 -0.687,-1.468 -0.307,-0.439 -0.56,-0.915 -0.915,-1.32 -0.356,-0.407 -1.1,-0.548 -1.488,-0.926 -0.39,-0.379 -1.164,-0.487 -1.573,-0.846 -0.408,-0.362 -0.717,-0.79 -1.145,-1.135 -0.43,-0.341 -0.776,-0.744 -1.218,-1.075 -0.439,-0.332 -0.398,-1.022 -0.835,-1.356 -0.436,-0.335 -1.478,-0.201 -1.904,-0.534 -0.429,-0.332 -0.55,-0.902 -0.968,-1.242 a 12.872,12.872 0 0 1 -1.302,-1.244 c -0.408,-0.433 -0.48,-1.136 -0.859,-1.596 -0.375,-0.462 -0.87,-0.827 -1.255,-1.279 -0.386,-0.453 -0.978,-0.731 -1.41,-1.141 -0.425,-0.404 -0.579,-1.04 -0.978,-1.465 -0.4,-0.427 -1.08,-0.605 -1.444,-1.058 -0.368,-0.452 -0.897,-0.76 -1.234,-1.24 -0.333,-0.48 -0.194,-1.394 -0.508,-1.901 -0.284,-0.457 -1.071,-0.45 -1.318,-0.936 -0.245,-0.49 0.057,-1.497 -0.17,-2.014 -0.225,-0.52 -1.012,-0.504 -1.236,-1.023 -0.227,-0.518 -0.216,-1.27 -0.466,-1.774 -0.246,-0.505 -0.242,-1.263 -0.521,-1.744 -0.085,-0.145 0.407,-0.644 0.503,-0.51 0.355,0.491 0.988,0.701 1.401,1.134 0.415,0.433 0.393,1.295 0.845,1.686 0.45,0.39 1.346,0.35 1.825,0.722 0.477,0.372 0.848,0.847 1.342,1.204 0.495,0.357 1.157,0.558 1.664,0.91 0.504,0.353 1.101,0.623 1.6,0.986 0.501,0.362 0.78,0.923 1.254,1.31 0.475,0.387 0.767,0.934 1.203,1.355 0.444,0.424 1.182,0.602 1.596,1.06 0.405,0.46 0.841,0.9 1.184,1.414 0.345,0.51 0.691,1.026 0.934,1.615 0.243,0.59 0.225,1.382 0.328,2.07 0.104,0.69 0.416,1.211 0.663,1.782 0.25,0.573 0.16,1.392 0.517,1.877 0.354,0.488 0.79,0.916 1.207,1.36 0.416,0.443 0.963,0.793 1.39,1.235 0.38,0.396 0.724,0.817 1.074,1.235 0.354,0.416 0.737,0.813 1.057,1.253 0.319,0.44 0.68,0.853 0.95,1.327 0.268,0.475 0.378,1.052 0.578,1.57 0.202,0.515 0.5,0.969 0.632,1.527 0.013,0.057 -0.287,0.242 -0.313,0.195 m 5.62,-30.76 c 0.109,-0.045 0.328,0.042 0.401,-0.047 0.073,-0.09 0.194,-0.12 0.237,-0.244 0.043,-0.125 -0.22,-0.617 -0.201,-0.771 0.019,-0.153 -0.262,-0.668 -0.261,-0.843 0.002,-0.174 0.09,-0.245 0.08,-0.433 -0.01,-0.188 0.041,-0.303 0.027,-0.496 -0.014,-0.193 0.355,0.073 0.342,-0.118 -0.012,-0.191 -0.504,-0.96 -0.508,-1.14 -0.004,-0.181 0.239,-0.066 0.25,-0.23 0.012,-0.184 0.06,-0.326 0.128,-0.446 0.067,-0.118 0.411,0.095 0.504,0.008 0.094,-0.088 0.103,-0.278 0.194,-0.368 0.091,-0.091 0.013,-0.385 0.073,-0.514 0.058,-0.126 0.338,0.016 0.423,-0.08 0.085,-0.093 -0.07,-0.478 0.042,-0.54 0.113,-0.06 0.092,-0.281 0.234,-0.308 0.14,-0.027 0.701,0.453 0.871,0.462 0.154,0.008 -0.135,-0.52 0.055,-0.467 0.19,0.052 0.859,0.684 1.069,0.762 0.211,0.077 -0.061,-0.432 0.155,-0.35 0.216,0.085 0.642,0.424 0.847,0.495 0.206,0.07 0.639,0.417 0.819,0.457 0.053,0.01 0.5,0.55 0.456,0.552 -0.16,0.004 -0.069,0.31 -0.177,0.377 -0.109,0.066 -0.596,-0.324 -0.664,-0.21 -0.068,0.116 0.264,0.712 0.226,0.862 -0.039,0.15 -0.179,0.179 -0.199,0.352 -0.02,0.173 0.107,0.52 0.094,0.702 -0.012,0.182 0.062,0.468 0.046,0.645 -0.016,0.178 -0.215,0.136 -0.246,0.295 -0.03,0.16 -0.221,0.127 -0.277,0.256 -0.058,0.13 0.13,0.556 0.044,0.652 -0.086,0.096 -0.148,0.22 -0.287,0.254 -0.138,0.033 -0.264,0.08 -0.478,0.022 -0.215,-0.058 -0.635,-0.367 -0.948,-0.547 -0.315,-0.18 -0.464,-0.161 -0.654,-0.192 -0.192,-0.032 -0.649,-0.385 -0.752,-0.31 -0.103,0.074 -0.135,0.235 -0.187,0.37 -0.052,0.137 0.006,0.406 -0.033,0.559 -0.035,0.137 -0.105,0.23 -0.157,0.346 -0.052,0.116 -0.083,0.258 -0.161,0.34 -0.079,0.085 -0.118,0.217 -0.232,0.258 -0.114,0.04 -0.349,-0.064 -0.507,-0.076 -0.158,-0.012 -0.243,0.064 -0.454,-0.012 a 1.98,1.98 0 0 1 -0.234,-0.284" />
</svg>
